<svg width="484" height="36" viewBox="0 0 484 36" xmlns="http://www.w3.org/2000/svg" xmlns:xlink="http://www.w3.org/1999/xlink"><svg width="28" height="28" viewBox="0 0 28 28"><path fill="#999" d="M22 10.9c0 4.4-4.9 8-11 8-1 0-1.9-.1-2.7-.3-1.3.9-2.8 1.6-4.3 2-.5.2-1 .2-1.4.3-.2 0-.5-.2-.5-.5-.1-.2.1-.4.3-.6.6-.8 1.3-1.3 1.8-2.7C1.6 15.7 0 13.4 0 10.9c0-4.4 4.9-8 11-8s11 3.7 11 8zm-20 0c0 1.7 1.2 3.4 3.2 4.5l1.5.9-.5 1.3c.3-.2.7-.4 1-.6l.7-.5.8.2c.8.1 1.6.2 2.4.2 4.9 0 9-2.7 9-6s-4.1-6-9-6S2 7.6 2 10.9zm23.7 12.9c.2.2.4.4.3.7s-.3.5-.5.5c-.5 0-.9 0-1.3-.2-1.6-.4-3-1.1-4.3-2-1 0-1.9.2-2.9.2-2.8 0-5.4-.8-7.4-2.1.5 0 .9.1 1.4.1 3.4 0 6.5-1 9-2.7 2.6-1.9 4-4.5 4-7.3 0-.8-.1-1.6-.4-2.4 2.6 1.5 4.4 3.8 4.4 6.4 0 2.5-1.6 4.8-4.2 6.3.6 1.2 1.3 1.9 1.9 2.5z"/></svg><svg width="16" height="16" viewBox="0 0 284.93 284.93" x="28"><path fill="#949494" d="M282.082 76.51L267.81 62.238c-1.903-1.906-4.095-2.856-6.57-2.856-2.472 0-4.662.95-6.564 2.856L142.466 174.44 30.262 62.24c-1.903-1.905-4.094-2.855-6.567-2.855-2.475 0-4.665.95-6.567 2.856L2.856 76.517C.95 78.416 0 80.606 0 83.082c0 2.474.953 4.663 2.856 6.565L135.9 222.693c1.9 1.903 4.092 2.854 6.565 2.854 2.475 0 4.66-.95 6.562-2.854L282.082 89.647c1.902-1.903 2.848-4.093 2.848-6.565 0-2.475-.946-4.665-2.848-6.572z"/></svg><svg width="28" height="28" viewBox="0 0 28 28" x="44"><path d="M9 18H6l4-4v-4h4l3-3 11 11h-3v10h-4v-8h-5v8H9V18zM6 1v7.5H4V6H2v2.5H0V25h7.5v-5.5h-5l6-6.5V8.5H13V1H6zM5 14H2v-3h3v3zm6-8H8V3h3v3z" fill="#999"/></svg><svg width="16" height="16" viewBox="0 0 16 16" x="72"><path d="M8 0C3.6 0 0 3.6 0 8s3.6 8 8 8 8-3.6 8-8-3.6-8-8-8zm0 14c-3.3 0-6-2.7-6-6s2.7-6 6-6 6 2.7 6 6-2.7 6-6 6zm0-2l4-6H4z" fill="#999"/></svg><svg width="24" height="24" viewBox="0 0 24 24" x="88"><path fill="#FFB81D" d="M21.4 8.4c-2.1 1.4-4.2 2.9-6.3 4.4-.9.6-2.3 1.8-3.4 1.8s-2.6-1.2-3.4-1.8C6.2 11.3 4.1 9.9 2 8.4 1.4 7.7 0 6.2 0 5c0-1.3.7-2.4 2.1-2.4h19.4c1.2 0 2.1 1 2.1 2.1.1 1.5-1 2.9-2.2 3.7zM24 19.2c0 1.2-1.3 2.2-2.4 2.2H2.1c-1.2 0-2.1-1-2.1-2.1V8.6c.4.4.9.8 1.4 1.2 2.2 1.5 4.5 3 6.7 4.6 1.1.8 2.5 1.8 4 1.8s2.9-1 4-1.8c2.2-1.6 4.4-3.1 6.7-4.6.5-.3.9-.7 1.2-1.2v10.6z"/></svg><svg width="12" height="12" viewBox="0 0 511.625 511.627" x="112"><path d="M392.858 292.354h-18.275c-2.668 0-4.86.854-6.562 2.572-1.717 1.708-2.57 3.897-2.57 6.563v91.36c0 12.56-4.47 23.313-13.416 32.26-8.945 8.945-19.7 13.415-32.264 13.415H82.223c-12.562 0-23.317-4.47-32.264-13.414-8.946-8.945-13.418-19.697-13.418-32.262V155.31c0-12.562 4.47-23.313 13.417-32.26 8.946-8.946 19.7-13.417 32.263-13.417h200.993c2.67 0 4.86-.86 6.57-2.57 1.71-1.713 2.566-3.9 2.566-6.567V82.22c0-2.66-.855-4.852-2.566-6.562-1.71-1.713-3.9-2.568-6.57-2.568H82.224c-22.648 0-42.016 8.042-58.102 24.125C8.042 113.297 0 132.665 0 155.313v237.542c0 22.647 8.042 42.02 24.123 58.096 16.086 16.086 35.454 24.13 58.102 24.13h237.543c22.646 0 42.018-8.044 58.102-24.13 16.084-16.075 24.127-35.445 24.127-58.094V301.5c0-2.67-.857-4.86-2.574-6.57-1.714-1.72-3.905-2.575-6.565-2.575zM506.2 41.97c-3.617-3.616-7.906-5.423-12.852-5.423H347.17c-4.947 0-9.232 1.807-12.846 5.424-3.617 3.617-5.43 7.9-5.43 12.85 0 4.95 1.812 9.232 5.43 12.85l50.246 50.247-186.146 186.15c-1.906 1.903-2.856 4.094-2.856 6.563 0 2.478.953 4.667 2.856 6.57l32.548 32.544c1.903 1.902 4.093 2.852 6.567 2.852s4.663-.947 6.565-2.852l186.148-186.148 50.25 50.248c3.615 3.617 7.898 5.426 12.848 5.426s9.233-1.81 12.853-5.426c3.617-3.616 5.424-7.897 5.424-12.847V54.817c-.003-4.95-1.815-9.23-5.428-12.846z" fill="#949494"/></svg><svg width="24" height="24" viewBox="0 0 24 24" x="124"><path fill="#3B5998" d="M17.8 4.6h-2.1c-1.6 0-2 .8-2 1.9V9h3.9l-.5 4h-3.4v10.2H9.6V13H6.2V9h3.4V6.1c0-3.4 2.1-5.2 5.1-5.2 1.4 0 2.7.1 3.1.2v3.5z"/></svg><svg width="24" height="24" viewBox="0 0 24 24" x="148"><path fill="#DD4B39" d="M15 17.7c0 .8-.2 1.6-.6 2.3-1.4 2.3-4.3 3.2-6.8 3.2-2 0-4.5-.5-5.6-2.4-.3-.5-.5-1.1-.5-1.8 0-1.5.9-2.8 2.2-3.5 1.6-1 3.6-1.2 5.4-1.3-.5-.6-.8-1.2-.8-2 0-.4.1-.8.3-1.1-.5-.1-.8-.1-1.1-.1-2.6 0-4.7-1.9-4.7-4.6 0-1.5.7-2.9 1.8-3.9C6.1 1.3 8.1.9 10 .9h5.6L13.7 2H12c1.2 1.1 2 2.2 2 3.9 0 3.5-3.2 3.9-3.2 5.6 0 1.8 4.2 2.4 4.2 6.2zm-1.9 1.1c0-1.8-1.8-2.9-3.1-3.8h-.6c-2.2 0-5.4.7-5.4 3.5 0 2.6 2.8 3.6 5 3.6 1.9-.2 4.1-1 4.1-3.3zm-2.3-9.4c.5-.6.7-1.3.7-2.1 0-2-1.2-5.3-3.6-5.3-.8 0-1.5.4-2 1-.4.5-.6 1.3-.6 2.1 0 2 1.1 5.2 3.6 5.2.6-.1 1.4-.4 1.9-.9zm11.8.8v1.4h-2.9v2.9h-1.4v-2.9h-2.8v-1.4h2.8V7.3h1.4v2.9h2.9z"/></svg><svg width="28" height="28" viewBox="0 0 28 28" x="172"><path fill="#999" d="M6 5V2L4.5 0 3 2v3H0v3h3v20h3V8h22V5H6zm17 18H12c-2.2 0-4-1.8-4-4v-5c0-2.2 1.8-4 4-4h11c2.2 0 4 1.8 4 4v5c0 2.2-1.8 4-4 4z"/></svg><svg width="28" height="28" viewBox="0 0 28 28" x="200"><path d="M27.8 13.4L24 10.2V3.1c0-.3-.2-.6-.6-.6H20c-.3 0-.6.2-.6.6v3.4L15.2 3c-.7-.6-1.9-.6-2.6 0L.2 13.4c-.2.2-.3.6-.1.8l1.1 1.3c.1.1.2.2.4.2s.3 0 .4-.1l12-10 12 10c.1.1.2.1.4.1h.1s.3-.1.4-.2l1.1-1.3c.1-.3 0-.6-.2-.8zM14 7L4 15.2v8.4c0 .7.5 1.2 1.1 1.2H12v-7h4v7h6.9c.6 0 1.1-.5 1.1-1.1v-8.4L14 7z" fill="#999"/></svg><svg width="28" height="28" viewBox="0 0 28 28" x="228"><path fill="#999" d="M24 3h-8.5V0h-3v3h-5v6H24l4-3-4-3zm-8.5 15h-3v8C11 26 8.8 27 8 28h12c-.8-1-3-2-4.5-2v-8zM0 13.5l4 3h16.5v-6H4l-4 3z"/></svg><svg width="12" height="20" viewBox="0 0 12 20" x="256"><path fill="#999" d="M10.2 0H1.8C.8 0 0 .8 0 1.8v16.4c0 1 .8 1.8 1.8 1.8h8.4c1 0 1.8-.8 1.8-1.8V1.8c0-1-.8-1.8-1.8-1.8zM4.5 1h3c.3 0 .5.2.5.5s-.2.5-.5.5h-3c-.3 0-.5-.2-.5-.5s.2-.5.5-.5zM6 19.4c-.8 0-1.4-.6-1.4-1.4s.6-1.4 1.4-1.4 1.4.6 1.4 1.4-.6 1.4-1.4 1.4zm5-4.1c0 .4-.3.7-.7.7H1.7c-.4 0-.7-.3-.7-.7V3.7c0-.4.3-.7.7-.7h8.6c.4 0 .7.3.7.7v11.6z"/></svg><svg width="28" height="28" viewBox="0 0 28 28" x="268"><path d="M27.8 13.4L24 10.2V3.1c0-.3-.2-.6-.6-.6H20c-.3 0-.6.2-.6.6v3.4L15.2 3c-.7-.6-1.9-.6-2.6 0L.2 13.4c-.2.2-.3.6-.1.8l1.1 1.3c.1.1.2.2.4.2s.3 0 .4-.1l12-10 12 10c.1.1.2.1.4.1h.1s.3-.1.4-.2l1.1-1.3c.1-.3 0-.6-.2-.8zM14 7L4 15.2v8.4c0 .7.5 1.2 1.1 1.2h17.8c.6 0 1.1-.5 1.1-1.1v-8.4L14 7zm.9 14.3v1.6c0 .1-.1.2-.2.2h-1.3c-.1 0-.2-.1-.2-.2v-1.6c-1.6-.2-2.2-1.2-2.2-1.2-.1-.1-.1-.2 0-.3l.7-.9s.1-.1.2-.1.1 0 .2.1c0 0 1 .9 2.2.9.7 0 1.4-.4 1.4-1.1s-.8-1-1.7-1.3c-1.5-.6-3-1.2-3-2.9 0-1.3.7-2.3 2.1-2.6v-1.6c0-.1.1-.2.2-.2h1.3c.1 0 .2.1.2.2v1.6c1.4.2 2 .9 2 .9.1.1.1.2 0 .3l-.6 1c0 .1-.1.1-.2.1h-.2s-.8-.7-1.8-.7c-.9 0-1.5.4-1.5 1 0 .7.8 1 1.8 1.4 1.3.5 2.7 1 2.7 2.7.2 1.3-.7 2.4-2.1 2.7z" fill="#999"/></svg><svg width="28" height="28" viewBox="0 0 28 28" x="296"><path fill="#999" d="M25 0H3C1.9 0 1 .9 1 2v24c0 1.1.9 2 2 2h22c1.1 0 2-.9 2-2V2c0-1.1-.9-2-2-2zM5 26c-1.1 0-2-.9-2-2s.9-2 2-2 2 .9 2 2-.9 2-2 2zm0-6c-1.1 0-2-.9-2-2s.9-2 2-2 2 .9 2 2-.9 2-2 2zm0-6c-1.1 0-2-.9-2-2s.9-2 2-2 2 .9 2 2-.9 2-2 2zm6 12c-1.1 0-2-.9-2-2s.9-2 2-2 2 .9 2 2-.9 2-2 2zm0-6c-1.1 0-2-.9-2-2s.9-2 2-2 2 .9 2 2-.9 2-2 2zm0-6c-1.1 0-2-.9-2-2s.9-2 2-2 2 .9 2 2-.9 2-2 2zm6 12c-1.1 0-2-.9-2-2s.9-2 2-2 2 .9 2 2-.9 2-2 2zm0-6c-1.1 0-2-.9-2-2s.9-2 2-2 2 .9 2 2-.9 2-2 2zm0-6c-1.1 0-2-.9-2-2s.9-2 2-2 2 .9 2 2-.9 2-2 2zm8 10c0 1.1-.9 2-2 2s-2-.9-2-2v-6c0-1.1.9-2 2-2s2 .9 2 2v6zm-2-10c-1.1 0-2-.9-2-2s.9-2 2-2 2 .9 2 2-.9 2-2 2zm2-7c0 .6-.5 1-1 1H4c-.6 0-1-.4-1-1V3c0-.6.4-1 1-1h20c.5 0 1 .4 1 1v4z"/></svg><svg width="28" height="28" viewBox="0 0 28 28" x="324"><path d="M7 19h8v2H7zm10-4h8v2h-8zm0 4h8v2h-8zm0-8h8v2h-8zm0-4h8v2h-8zM7 7h8v10H7zM4 3v4H0v16c0 1.1.9 2 2 2h24c1.1 0 2-.9 2-2V3H4zm0 19c0 .6-.4 1-1 1s-1-.4-1-1V9h2v13zm22 0c0 .6-.4 1-1 1H5.5c.3 0 .5-.5.5-.8V5h20v17z" fill="#999"/></svg><svg width="24" height="24" viewBox="0 0 24 24" x="352"><path fill="#CC2127" d="M12 22.3c-1 0-2-.1-2.9-.4.4-.6.8-1.4 1-2.2 0 0 .1-.5.7-2.8.3.7 1.4 1.3 2.5 1.3 3.3 0 5.6-3 5.6-7.1 0-3-2.6-5.9-6.5-5.9-4.9 0-7.3 3.5-7.3 6.4 0 1.8.7 3.3 2.1 3.9.2.1.4 0 .5-.3.1-.2.2-.6.2-.8.1-.3 0-.3-.1-.6-.4-.5-.7-1.1-.7-2-.1-2.5 1.9-4.9 5-4.9 2.8 0 4.3 1.7 4.3 4 0 3-1.3 5.5-3.3 5.5-1.1 0-1.9-.9-1.6-2 .3-1.3.9-2.7.9-3.6 0-.8-.5-1.6-1.4-1.6-1.1 0-2 1.1-2 2.7 0 0 0 1 .3 1.6C8.2 18.3 8 19.1 8 19.1c-.2.8-.2 1.6-.2 2.4-3.6-1.6-6.2-5.2-6.2-9.4C1.7 6.3 6.3 1.7 12 1.7S22.3 6.3 22.3 12 17.7 22.3 12 22.3z"/></svg><svg width="36" height="36" viewBox="0 0 36 36" x="376"><g fill="#999"><circle cx="25" cy="17.3" r="3.9"/><path d="M18 0C8.1 0 0 8.1 0 18s8.1 18 18 18 18-8.1 18-18C36 8 27.9 0 18 0zM5.1 18.6l-1.3-1.3 10.3-8.4 5.2 4.2c-.3.5-.6.9-.8 1.5l-4.4-3.8-9 7.8zm16.7 7.1h-5.1v-5.1h-5.1v5.1H6.4v-6.4l7.7-6.4 4 3.3c-.1.4-.1.8-.1 1.2 0 2.7 1.6 5.1 3.9 6.3v2h-.1zm6.2-3.4c-.9.5-1.9.8-3 .8-3.2 0-5.8-2.6-5.8-5.8s2.6-5.8 5.8-5.8 5.8 2.6 5.8 5.8c0 1.4-.5 2.7-1.4 3.7l2.8 2.8-1.4 1.4-2.8-2.9z"/></g></svg><svg width="28" height="28" viewBox="0 0 28 28" x="412"><path d="M1 28h5v-5H1v5zm14 0h5v-9h-5v9zm7 0h5V13h-5v15zM12 10l4 4 8-8 2 2 2-8-8 2 2 2-6 6-4-4L0 18l2 2 10-10zM8 28h5v-6H8v6z" fill="#999"/></svg><svg width="24" height="24" viewBox="0 0 24 24" x="440"><path fill="#55ACEE" d="M20.4 7.7v.6c0 5.7-4.4 12.3-12.3 12.3-2.5 0-4.7-.7-6.6-1.9.3 0 .7.1 1 .1 2 0 3.9-.7 5.4-1.8-1.9 0-3.5-1.3-4-3 .3 0 .5.1.8.1.4 0 .8-.1 1.1-.1-2-.4-3.5-2.1-3.5-4.2v-.1c.6.3 1.2.5 2 .5-1.2-1-2-2.3-2-3.8 0-.8.2-1.5.6-2.2C5 6.8 8.3 8.6 11.8 8.7c-.1-.3-.1-.7-.1-1 0-2.4 1.9-4.3 4.3-4.3 1.2 0 2.4.5 3.2 1.4 1-.2 1.9-.5 2.7-1-.3 1-1 1.8-1.9 2.4.9-.1 1.7-.3 2.5-.7-.5.8-1.3 1.6-2.1 2.2z"/></svg><svg width="20" height="20" viewBox="0 0 20 20" x="464"><path d="M10 10c1.38 0 2.56-.488 3.535-1.465S15 6.38 15 5s-.488-2.56-1.465-3.535S11.38 0 10 0C8.62 0 7.44.488 6.465 1.465S5 3.62 5 5s.488 2.56 1.465 3.535S8.62 10 10 10zm9.12 5.28c-.03-.44-.09-.91-.18-1.42-.093-.508-.208-.978-.347-1.413-.14-.434-.326-.856-.56-1.27-.235-.412-.504-.763-.808-1.054-.305-.29-.676-.523-1.113-.696-.438-.174-.923-.26-1.452-.26-.078 0-.26.092-.547.28-.286.186-.61.394-.97.624-.36.23-.83.44-1.406.627-.578.187-1.156.28-1.74.28-.58 0-1.16-.094-1.737-.28-.577-.187-1.046-.395-1.406-.625-.36-.23-.683-.437-.97-.624-.287-.187-.47-.28-.547-.28-.53 0-1.014.087-1.452.26-.438.174-.81.407-1.114.697-.302.29-.57.642-.805 1.054-.234.412-.42.835-.56 1.27-.14.434-.254.904-.345 1.413-.092.51-.153.98-.183 1.42-.03.438-.046.888-.046 1.348 0 1.043.32 1.865.953 2.47.635.6 1.478.903 2.528.903h11.38c1.05 0 1.893-.302 2.527-.904.634-.605.95-1.427.95-2.47 0-.46-.014-.91-.045-1.35z" fill="gray"/></svg></svg>