<svg width="248" height="196" viewBox="0 0 248 196" xmlns="http://www.w3.org/2000/svg" xmlns:xlink="http://www.w3.org/1999/xlink"><svg width="38" height="38" viewBox="-5 -5 38 38" x="38" y="120"><path fill="#999" d="M22 10.9c0 4.4-4.9 8-11 8-1 0-1.9-.1-2.7-.3-1.3.9-2.8 1.6-4.3 2-.5.2-1 .2-1.4.3-.2 0-.5-.2-.5-.5-.1-.2.1-.4.3-.6.6-.8 1.3-1.3 1.8-2.7C1.6 15.7 0 13.4 0 10.9c0-4.4 4.9-8 11-8s11 3.7 11 8zm-20 0c0 1.7 1.2 3.4 3.2 4.5l1.5.9-.5 1.3c.3-.2.7-.4 1-.6l.7-.5.8.2c.8.1 1.6.2 2.4.2 4.9 0 9-2.7 9-6s-4.1-6-9-6S2 7.6 2 10.9zm23.7 12.9c.2.2.4.4.3.7s-.3.5-.5.5c-.5 0-.9 0-1.3-.2-1.6-.4-3-1.1-4.3-2-1 0-1.9.2-2.9.2-2.8 0-5.4-.8-7.4-2.1.5 0 .9.1 1.4.1 3.4 0 6.5-1 9-2.7 2.6-1.9 4-4.5 4-7.3 0-.8-.1-1.6-.4-2.4 2.6 1.5 4.4 3.8 4.4 6.4 0 2.5-1.6 4.8-4.2 6.3.6 1.2 1.3 1.9 1.9 2.5z"/></svg><svg width="26" height="26" viewBox="-5 -5 294.93 294.93" x="218" y="30"><path fill="#949494" d="M282.082 76.51L267.81 62.238c-1.903-1.906-4.095-2.856-6.57-2.856-2.472 0-4.662.95-6.564 2.856L142.466 174.44 30.262 62.24c-1.903-1.905-4.094-2.855-6.567-2.855-2.475 0-4.665.95-6.567 2.856L2.856 76.517C.95 78.416 0 80.606 0 83.082c0 2.474.953 4.663 2.856 6.565L135.9 222.693c1.9 1.903 4.092 2.854 6.565 2.854 2.475 0 4.66-.95 6.562-2.854L282.082 89.647c1.902-1.903 2.848-4.093 2.848-6.565 0-2.475-.946-4.665-2.848-6.572z"/></svg><svg width="60" height="60" viewBox="-5 -5 60 60" x="120"><linearGradient id="a" gradientUnits="userSpaceOnUse" x1="25" y1="50" x2="25"><stop offset="0" stop-color="#34B3A2"/><stop offset="1" stop-color="#57BEB5"/></linearGradient><path fill="url(#a)" d="M38.3 50H11.7C5.3 50 0 44.7 0 38.3V11.7C0 5.3 5.3 0 11.7 0h26.6C44.7 0 50 5.3 50 11.7v26.6C50 44.7 44.7 50 38.3 50z"/><path fill="#fff" d="M11.6 11v24.8h20.8V11H11.6zm19.2 19.4H13.1V12.7h17.7v17.7z"/><g fill="#fff"><path d="M11.1 39.4c.4 0 .6.1.9.2.2.1.4.3.5.6.1.2.1.4.1.6v1.8c0 .3-.1.5-.1.6-.1.1-.1.3-.2.4-.1.1-.2.2-.3.2-.1.1-.3.1-.4.1H9.4v-4.5h1.7zm.2 1.9v-.7c-.1-.2-.2-.3-.4-.3h-.3v2.5h.3c.2 0 .3-.1.4-.2.1-.1.1-.3.1-.5v-.8zm4.9.8v.6c0 .2-.1.4-.2.5-.1.2-.3.4-.5.5-.2.1-.5.2-.9.2s-.6-.1-.9-.2c-.2-.1-.4-.3-.5-.5-.1-.2-.1-.3-.2-.6v-2.2c.1-.4.2-.7.5-.9.3-.2.6-.3 1.1-.3.3 0 .5 0 .7.1.2.1.4.2.5.3.1.1.2.3.3.5.1.2.1.4.1.6v1.4zm-1.2-1v-.4c0-.1-.1-.2-.1-.2-.1 0-.1-.1-.2-.1s-.2 0-.2.1c-.1.1-.1.1-.1.2v1.9c0 .1.1.2.1.2.1 0 .1.1.2.1.2 0 .4-.1.4-.4v-1.4zm4.8 1v.6c0 .2-.1.4-.2.5-.1.2-.3.4-.5.5-.2.1-.5.2-.9.2s-.6-.1-.9-.2c-.2-.1-.4-.3-.5-.5-.1-.2-.1-.3-.2-.6v-2.2c.1-.4.2-.7.5-.9.3-.2.6-.3 1.1-.3.3 0 .5 0 .7.1.2.1.4.2.5.3.1.1.2.3.3.5.1.2.1.4.1.6v1.4zm-1.2-1v-.4c0-.1-.1-.2-.1-.2-.1 0-.1-.1-.2-.1s-.2 0-.2.1c-.1.1-.1.1-.1.2v1.9c0 .1.1.2.1.2.1 0 .1.1.2.1.2 0 .4-.1.4-.4v-1.4zm3.7 2.8l-.6-1.7h-.2v1.7h-1.2v-4.5h1.8c.4 0 .8.1 1 .3.3.2.4.6.4 1 0 .3-.1.5-.2.7-.1.2-.3.4-.5.5l.7 2h-1.2zm0-3.1c0-.1 0-.2-.1-.3-.1-.1-.2-.1-.3-.1h-.3v.8h.5s.1 0 .1-.1l.1-.1v-.2m4.7 1.7c0 .4-.1.8-.4 1-.3.2-.7.4-1.2.4-.4 0-.7-.1-1-.2-.3-.1-.5-.3-.7-.6l.8-.7c.1.2.3.3.4.4.1.1.3.1.4.1.2 0 .3 0 .3-.1.1-.1.1-.1.1-.2v-.2l-.1-.1c-.1 0-.1-.1-.2-.1s-.2-.1-.3-.1c-.2-.1-.4-.1-.5-.2-.1-.1-.3-.2-.4-.3-.1-.1-.2-.2-.2-.4-.1-.1-.1-.3-.1-.5s0-.4.1-.6c.1-.2.2-.3.3-.4.1-.1.3-.2.5-.3.2-.1.4-.1.6-.1.3 0 .6.1.9.2.2.1.5.3.6.5l-.7.8c-.1-.1-.2-.2-.4-.3-.1-.1-.3-.1-.4-.1-.1 0-.2 0-.2.1-.1.1-.1.1-.1.2s.1.2.2.2c.1.1.3.1.5.2l.6.3c.2.1.3.2.4.3.1.1.2.2.2.4v.4M29.3 40.4v3.5h-1.2v-3.5h-1v-1h3.2v1zm1.3 3.5v-4.5h2.9v1h-1.6v.7h1.4v1h-1.4v.8h1.6v1zm6.6-3.1c0 .2 0 .4-.1.6-.1.2-.2.3-.3.5-.1.1-.3.2-.5.3-.2.1-.4.1-.6.1h-.5V44H34v-4.5h1.7c.2 0 .4 0 .6.1.2.1.3.1.5.3.1.1.2.3.3.4.1.1.1.3.1.5m-1.2 0c0-.1 0-.3-.1-.3-.1-.1-.2-.1-.3-.1h-.3v.9h.3c.1 0 .2 0 .3-.1.1-.1.1-.2.1-.4m4.6 1.7c0 .4-.1.8-.4 1-.3.3-.7.5-1.2.5-.4 0-.7-.1-1-.2-.3-.1-.5-.3-.7-.6l.8-.7c.1.2.3.3.4.4.1.1.3.1.4.1.2 0 .3 0 .3-.1.1-.1.1-.1.1-.2v-.2l-.1-.1c-.1 0-.1-.1-.2-.1s-.2-.1-.3-.1c-.2-.1-.4-.1-.5-.2-.1-.1-.3-.2-.4-.3-.1-.1-.2-.2-.2-.4-.1-.1-.1-.3-.1-.5s0-.4.1-.6c.1-.2.2-.3.3-.4.1-.1.3-.2.5-.3.2-.1.4-.1.6-.1.3 0 .6.1.9.2.2.1.5.3.6.5l-.7.8c-.1-.1-.2-.2-.4-.3-.1-.1-.3-.1-.4-.1-.1 0-.2 0-.2.1-.1.1-.1.1-.1.2s.1.2.2.2c.1.1.3.1.5.2l.6.3c.2.1.3.2.4.3.1.1.2.2.2.4v.3"/></g><path fill="#fff" d="M19.9 5.7l-.4 4.7H21l.3-2.9L38.9 9l-1.6 17.6-4.3-.4v5.5l5.4.5 2.2-24.7zM22 16l-7.2 6.1h1.3v6.4h6.4v-5.3h2.8v5.3h2.6v-6.4h1.3L22 16zm-1.5 10h-2.8v-2.8h2.8V26z"/></svg><svg width="60" height="60" viewBox="-5 -5 60 60"><path fill-rule="evenodd" clip-rule="evenodd" d="M10.4 1.5h22.5c.8 0 1.4.6 1.4 1.4v39.6c0 .8-.6 1.4-1.4 1.4H10.4c-.8 0-1.4-.6-1.4-1.4V2.9c0-.8.6-1.4 1.4-1.4z" opacity=".03"/><path fill-rule="evenodd" clip-rule="evenodd" d="M10.5 1.6h22.3c.8 0 1.4.6 1.4 1.4v39.2c0 .8-.6 1.4-1.4 1.4H10.5c-.8 0-1.4-.6-1.4-1.4V3c0-.8.6-1.4 1.4-1.4z" opacity=".04"/><path fill-rule="evenodd" clip-rule="evenodd" d="M10.6 1.7h22.1c.8 0 1.4.6 1.4 1.4v38.8c0 .8-.6 1.4-1.4 1.4H10.6c-.8 0-1.4-.6-1.4-1.4V3.1c0-.8.6-1.4 1.4-1.4z" opacity=".06"/><path fill-rule="evenodd" clip-rule="evenodd" d="M10.7 1.8h21.9c.8 0 1.4.6 1.4 1.4v38.4c0 .8-.6 1.4-1.4 1.4H10.7c-.8 0-1.4-.6-1.4-1.4V3.2c0-.8.6-1.4 1.4-1.4z" opacity=".08"/><path fill-rule="evenodd" clip-rule="evenodd" d="M10.8 1.9h21.7c.8 0 1.4.6 1.4 1.4v38c0 .8-.6 1.4-1.4 1.4H10.8c-.8 0-1.4-.6-1.4-1.4v-38c0-.8.6-1.4 1.4-1.4z"/><path fill-rule="evenodd" clip-rule="evenodd" fill="#7ABAB0" d="M11.6 4.8h20.1v32.8H11.6V4.8z"/><path opacity=".1" fill-rule="evenodd" clip-rule="evenodd" fill="#fff" d="M33.9 3.8v-.5c0-.8-.6-1.4-1.4-1.4H10.8c-.8 0-1.4.6-1.4 1.4v38c0 .3.1.7.3.9C12.1 15.5 28 6.3 33.9 3.8zm-5.6-1.9H10.8c-.8 0-1.4.6-1.4 1.4v19.5C14 10.3 22.1 4.5 28.3 1.9z"/><path fill-rule="evenodd" clip-rule="evenodd" d="M23 9h15.2c1.6 0 2.8 1.3 2.8 2.8v33.8c0 1.6-1.3 2.8-2.8 2.8H23c-1.6 0-2.8-1.3-2.8-2.8V11.8C20.1 10.3 21.4 9 23 9z" opacity=".03"/><path fill-rule="evenodd" clip-rule="evenodd" d="M23.1 9.1h15c1.6 0 2.8 1.3 2.8 2.8v33.4c0 1.6-1.3 2.8-2.8 2.8h-15c-1.6 0-2.8-1.3-2.8-2.8V11.9c-.1-1.5 1.2-2.8 2.8-2.8z" opacity=".04"/><path fill-rule="evenodd" clip-rule="evenodd" d="M23.2 9.2H38c1.6 0 2.8 1.3 2.8 2.8v33c0 1.6-1.3 2.8-2.8 2.8H23.2c-1.6 0-2.8-1.3-2.8-2.8V12c-.1-1.5 1.2-2.8 2.8-2.8z" opacity=".06"/><path fill-rule="evenodd" clip-rule="evenodd" d="M23.3 9.3h14.6c1.6 0 2.8 1.3 2.8 2.8v32.6c0 1.6-1.3 2.8-2.8 2.8H23.3c-1.6 0-2.8-1.3-2.8-2.8V12.1c-.1-1.5 1.2-2.8 2.8-2.8z" opacity=".08"/><path fill-rule="evenodd" clip-rule="evenodd" fill="#fff" d="M23.4 9.4h14.4c1.6 0 2.8 1.3 2.8 2.8v32.3c0 1.6-1.3 2.8-2.8 2.8H23.4c-1.6 0-2.8-1.3-2.8-2.8V12.2c-.1-1.5 1.2-2.8 2.8-2.8z"/><path fill="#CCCBCB" d="M30.6 46.5c-1.4 0-2.5-1.1-2.5-2.5s1.1-2.5 2.5-2.5 2.5 1.1 2.5 2.5-1.1 2.5-2.5 2.5zm0-4.4c-1.1 0-1.9.9-1.9 1.9 0 1.1.9 1.9 1.9 1.9s1.9-.9 1.9-1.9c0-1.1-.9-1.9-1.9-1.9z"/><path fill-rule="evenodd" clip-rule="evenodd" fill="#1C6067" d="M21.6 13.9h17.8v26.8H21.6V13.9z"/><path fill-rule="evenodd" clip-rule="evenodd" fill="#BABABB" d="M28.7 11.6h3.8c.2 0 .4.2.4.4s-.2.4-.4.4h-3.8c-.2 0-.4-.2-.4-.4s.2-.4.4-.4z"/><path opacity=".05" fill-rule="evenodd" clip-rule="evenodd" fill="#fff" d="M40.6 11.8c-.2-1.4-1.4-2.4-2.8-2.4H23.4c-1.6 0-2.8 1.3-2.8 2.8v32.3c0 .6.2 1.2.5 1.7C23.4 23 34.8 14.6 40.6 11.8zm-6.2-2.4h-11c-1.6 0-2.8 1.3-2.8 2.8v14c3.5-9.7 9.1-14.5 13.8-16.8z"/></svg><svg width="60" height="60" viewBox="-5 -5 60 60" x="60"><path fill="#648794" d="M38.3 50H11.7C5.3 50 0 44.7 0 38.3V11.7C0 5.3 5.3 0 11.7 0h26.6C44.7 0 50 5.3 50 11.7v26.6C50 44.7 44.7 50 38.3 50z"/><path d="M5.9 7.5h1v.6c.2-.4.6-.7 1.1-.7.1 0 .2 0 .3.1v.9c-.2 0-.3-.1-.5-.1-.9 0-1 .8-1 1v2.1h-1V7.5zm3.6 2.3c.1.6.5.9 1 .9s.8-.2 1-.5l.7.5c-.5.6-1 .8-1.6.8-1.2 0-2.1-.8-2.1-2s.9-2 2.1-2c1.1 0 1.8.8 1.8 2.1v.3H9.5zm2-.7c0-.6-.4-.9-1-.9s-.9.4-1 .9h2zm4 1.7c-.3.4-.7.6-1.3.6-.7 0-1.4-.4-1.4-1.2 0-1.3 1.5-1.3 2.4-1.3h.2c0-.5-.4-.7-.9-.7-.4 0-.8.2-1 .4l-.4-.6c.4-.4 1-.6 1.6-.6 1.7 0 1.7 1.2 1.7 1.7v2.2h-.9v-.5zm-.1-1.2h-.2c-.5 0-1.5 0-1.5.6 0 .4.4.5.7.5.7 0 1-.3 1-.9v-.2zm1.7-4.3h1v6.1h-1V5.3zm1.3 3v-.8h.8V6.4h1v1.1h1.1v.8h-1.1V10c0 .4.1.6.5.6.2 0 .4 0 .5-.1v.8c-.2.1-.5.1-.8.1-1 0-1.3-.5-1.3-1.4V8.3h-.7zm5.2-.9c1.2 0 2.1.8 2.1 2s-.9 2-2.1 2c-1.2 0-2.1-.8-2.1-2s1-2 2.1-2zm0 3.2c.7 0 1.1-.6 1.1-1.2s-.4-1.2-1.1-1.2c-.7 0-1.1.6-1.1 1.2s.4 1.2 1.1 1.2zm2.6-3.1h1v.6c.2-.4.6-.7 1.1-.7.1 0 .2 0 .3.1v.9c-.2 0-.3-.1-.5-.1-.9 0-1 .8-1 1v2.1h-1V7.5zm2.5 2.7c.3 0 .6.3.6.6s-.3.6-.6.6-.6-.3-.6-.6c-.1-.3.2-.6.6-.6zm3.8-1.5c-.2-.2-.5-.4-.7-.4-.7 0-1.1.6-1.1 1.2s.4 1.2 1.1 1.2c.3 0 .6-.1.7-.4l.6.7c-.4.4-1.1.5-1.4.5-1.2 0-2.1-.8-2.1-2s.9-2 2.1-2c.5 0 1 .2 1.4.6l-.6.6zm2.9-1.3c1.2 0 2.1.8 2.1 2s-.9 2-2.1 2c-1.2 0-2.1-.8-2.1-2s1-2 2.1-2zm0 3.2c.7 0 1.1-.6 1.1-1.2s-.4-1.2-1.1-1.2c-.7 0-1.1.6-1.1 1.2s.4 1.2 1.1 1.2zm2.7-3.1h.9v.6c.2-.4.5-.7 1.2-.7.6 0 1 .2 1.2.7.3-.5.7-.7 1.3-.7 1 0 1.4.7 1.4 1.7v2.3h-1V9.2c0-.5-.1-.9-.7-.9s-.8.5-.8 1v2.1h-1V9.1c0-.5-.2-.8-.7-.8-.6 0-.9.5-.9 1v2.1h-1V7.5zM45.4 7.4c.4 0 .8.4.8.8s-.4.8-.8.8-.8-.4-.8-.8.4-.8.8-.8zm0 1.5c.4 0 .7-.3.7-.7 0-.4-.3-.7-.7-.7-.4 0-.7.3-.7.7.1.4.4.7.7.7zm-.1-.2h-.1v-1h.4c.2 0 .3.1.3.3 0 .2-.1.2-.2.3l.3.4h-.1l-.3-.4h-.2v.4zm0-.6h.1c.1 0 .3 0 .3-.2 0-.1-.1-.2-.2-.2h-.2v.4zM25 14.2L8.6 27.5l2 1.9L25 17.7l14.4 11.7 2-1.9zm-5.4 29.2h10.7V45H19.6z" fill="#fff"/><path d="M26.4 35.8c.1-.2.2-.4.2-.6 0-.2-.1-.4-.2-.6-.1-.2-.3-.3-.5-.4 0 0-.1 0-.1-.1v2.2c.1 0 .1-.1.2-.1s.2-.2.4-.4zm-2.1-5.9c-.1.1-.2.1-.3.1-.2.1-.3.2-.4.4-.1.2-.2.3-.2.6 0 .2 0 .4.1.5.1.1.2.3.4.4.1.1.2.1.3.2v-2.2zm.7-9.6l-12 9.8v13.2h6.6l1.4-.8h8l1.4.8H37V30.1l-12-9.8zm-.9 13.3l-.9-.3c-.3-.1-.6-.3-.8-.5-.2-.2-.5-.4-.6-.7-.2-.3-.2-.6-.2-1.1 0-.5.1-.9.3-1.2.2-.3.5-.6.9-.8.4-.2.8-.4 1.2-.5.1 0 .2-.1.3-.1v-.9h1.4v.9c.4 0 .8.1 1.2.2.5.2 1 .4 1.4.7l-1.2 1.2c-.2-.2-.5-.4-.8-.6-.2-.1-.4-.1-.6-.2v2.7c.2.1.5.1.7.2.4.1.7.3 1 .5.3.2.5.4.7.7.2.3.3.7.3 1.1 0 .5-.1.9-.3 1.3-.2.4-.5.7-.8.9-.3.2-.7.4-1.2.5-.1 0-.2.1-.4.1v1h-1.4v-.9c-.6 0-1.1-.1-1.6-.3-.6-.2-1.2-.5-1.6-1l1.3-1.1c.3.3.6.6 1 .7.3.1.6.2.9.2v-2.9c-.1.3-.1.3-.2.2zM21 41.2l1-.8h6l1 .8h-8z" fill="#fff"/></svg><svg width="60" height="60" viewBox="-5 -5 60 60" y="60"><path fill="#0E565E" d="M38.3 50H11.7C5.3 50 0 44.7 0 38.3V11.7C0 5.3 5.3 0 11.7 0h26.6C44.7 0 50 5.3 50 11.7v26.6C50 44.7 44.7 50 38.3 50z"/><path d="M5.9 7.5h1v.6c.2-.4.6-.7 1.1-.7.1 0 .2 0 .3.1v.9c-.2 0-.3-.1-.5-.1-.9 0-1 .8-1 1v2.1h-1V7.5zm3.6 2.3c.1.6.5.9 1 .9s.8-.2 1-.5l.7.5c-.5.6-1 .8-1.6.8-1.2 0-2.1-.8-2.1-2s.9-2 2.1-2c1.1 0 1.8.8 1.8 2.1v.3H9.5zm2-.7c0-.6-.4-.9-1-.9s-.9.4-1 .9h2zm4 1.7c-.3.4-.7.6-1.3.6-.7 0-1.4-.4-1.4-1.2 0-1.3 1.5-1.3 2.4-1.3h.2c0-.5-.4-.7-.9-.7-.4 0-.8.2-1 .4l-.4-.6c.4-.4 1-.6 1.6-.6 1.7 0 1.7 1.2 1.7 1.7v2.2h-.9v-.5zm-.1-1.2h-.2c-.5 0-1.5 0-1.5.6 0 .4.4.5.7.5.7 0 1-.3 1-.9v-.2zm1.7-4.3h1v6.1h-1V5.3zm1.3 3v-.8h.8V6.4h1v1.1h1.1v.8h-1.1V10c0 .4.1.6.5.6.2 0 .4 0 .5-.1v.8c-.2.1-.5.1-.8.1-1 0-1.3-.5-1.3-1.4V8.3h-.7zm5.2-.9c1.2 0 2.1.8 2.1 2s-.9 2-2.1 2c-1.2 0-2.1-.8-2.1-2s1-2 2.1-2zm0 3.2c.7 0 1.1-.6 1.1-1.2s-.4-1.2-1.1-1.2c-.7 0-1.1.6-1.1 1.2s.4 1.2 1.1 1.2zm2.6-3.1h1v.6c.2-.4.6-.7 1.1-.7.1 0 .2 0 .3.1v.9c-.2 0-.3-.1-.5-.1-.9 0-1 .8-1 1v2.1h-1V7.5zm2.5 2.7c.3 0 .6.3.6.6s-.3.6-.6.6-.6-.3-.6-.6c-.1-.3.2-.6.6-.6zm3.8-1.5c-.2-.2-.5-.4-.7-.4-.7 0-1.1.6-1.1 1.2s.4 1.2 1.1 1.2c.3 0 .6-.1.7-.4l.6.7c-.4.4-1.1.5-1.4.5-1.2 0-2.1-.8-2.1-2s.9-2 2.1-2c.5 0 1 .2 1.4.6l-.6.6zm2.9-1.3c1.2 0 2.1.8 2.1 2s-.9 2-2.1 2c-1.2 0-2.1-.8-2.1-2s1-2 2.1-2zm0 3.2c.7 0 1.1-.6 1.1-1.2s-.4-1.2-1.1-1.2c-.7 0-1.1.6-1.1 1.2s.4 1.2 1.1 1.2zm2.7-3.1h.9v.6c.2-.4.5-.7 1.2-.7.6 0 1 .2 1.2.7.3-.5.7-.7 1.3-.7 1 0 1.4.7 1.4 1.7v2.3h-1V9.2c0-.5-.1-.9-.7-.9s-.8.5-.8 1v2.1h-1V9.1c0-.5-.2-.8-.7-.8-.6 0-.9.5-.9 1v2.1h-1V7.5zM45.4 7.4c.4 0 .8.4.8.8s-.4.8-.8.8-.8-.4-.8-.8.4-.8.8-.8zm0 1.5c.4 0 .7-.3.7-.7 0-.4-.3-.7-.7-.7-.4 0-.7.3-.7.7.1.4.4.7.7.7zm-.1-.2h-.1v-1h.4c.2 0 .3.1.3.3 0 .2-.1.2-.2.3l.3.4h-.1l-.3-.4h-.2v.4zm0-.6h.1c.1 0 .3 0 .3-.2 0-.1-.1-.2-.2-.2h-.2v.4zM25 14.2L8.6 27.5l2 1.9L25 17.7l14.4 11.7 2-1.9zm-5.4 29.2h10.7V45H19.6zM13 30.1v13.2h6.6l1.4-.8h8l1.4.8H37V30.1l-12-9.8-12 9.8zm16 11.1h-8l1-.8v-9.1h6v9.1l1 .8z" fill="#fff"/></svg><svg width="60" height="60" viewBox="-5 -5 60 60" x="60" y="60"><path fill="#46928E" d="M38.3 50H11.7C5.3 50 0 44.7 0 38.3V11.7C0 5.3 5.3 0 11.7 0h26.6C44.7 0 50 5.3 50 11.7v26.6C50 44.7 44.7 50 38.3 50z"/><path d="M5.9 7.5h1v.6c.2-.4.6-.7 1.1-.7.1 0 .2 0 .3.1v.9c-.2 0-.3-.1-.5-.1-.9 0-1 .8-1 1v2.1h-1V7.5zm3.6 2.3c.1.6.5.9 1 .9s.8-.2 1-.5l.7.5c-.5.6-1 .8-1.6.8-1.2 0-2.1-.8-2.1-2s.9-2 2.1-2c1.1 0 1.8.8 1.8 2.1v.3H9.5zm2-.7c0-.6-.4-.9-1-.9s-.9.4-1 .9h2zm4 1.7c-.3.4-.7.6-1.3.6-.7 0-1.4-.4-1.4-1.2 0-1.3 1.5-1.3 2.4-1.3h.2c0-.5-.4-.7-.9-.7-.4 0-.8.2-1 .4l-.4-.6c.4-.4 1-.6 1.6-.6 1.7 0 1.7 1.2 1.7 1.7v2.2h-.9v-.5zm-.1-1.2h-.2c-.5 0-1.5 0-1.5.6 0 .4.4.5.7.5.7 0 1-.3 1-.9v-.2zm1.7-4.3h1v6.1h-1V5.3zm1.3 3v-.8h.8V6.4h1v1.1h1.1v.8h-1.1V10c0 .4.1.6.5.6.2 0 .4 0 .5-.1v.8c-.2.1-.5.1-.8.1-1 0-1.3-.5-1.3-1.4V8.3h-.7zm5.2-.9c1.2 0 2.1.8 2.1 2s-.9 2-2.1 2c-1.2 0-2.1-.8-2.1-2s1-2 2.1-2zm0 3.2c.7 0 1.1-.6 1.1-1.2s-.4-1.2-1.1-1.2c-.7 0-1.1.6-1.1 1.2s.4 1.2 1.1 1.2zm2.6-3.1h1v.6c.2-.4.6-.7 1.1-.7.1 0 .2 0 .3.1v.9c-.2 0-.3-.1-.5-.1-.9 0-1 .8-1 1v2.1h-1V7.5zm2.5 2.7c.3 0 .6.3.6.6s-.3.6-.6.6-.6-.3-.6-.6c-.1-.3.2-.6.6-.6zm3.8-1.5c-.2-.2-.5-.4-.7-.4-.7 0-1.1.6-1.1 1.2s.4 1.2 1.1 1.2c.3 0 .6-.1.7-.4l.6.7c-.4.4-1.1.5-1.4.5-1.2 0-2.1-.8-2.1-2s.9-2 2.1-2c.5 0 1 .2 1.4.6l-.6.6zm2.9-1.3c1.2 0 2.1.8 2.1 2s-.9 2-2.1 2c-1.2 0-2.1-.8-2.1-2s1-2 2.1-2zm0 3.2c.7 0 1.1-.6 1.1-1.2s-.4-1.2-1.1-1.2c-.7 0-1.1.6-1.1 1.2s.4 1.2 1.1 1.2zm2.7-3.1h.9v.6c.2-.4.5-.7 1.2-.7.6 0 1 .2 1.2.7.3-.5.7-.7 1.3-.7 1 0 1.4.7 1.4 1.7v2.3h-1V9.2c0-.5-.1-.9-.7-.9s-.8.5-.8 1v2.1h-1V9.1c0-.5-.2-.8-.7-.8-.6 0-.9.5-.9 1v2.1h-1V7.5zM45.4 7.4c.4 0 .8.4.8.8s-.4.8-.8.8-.8-.4-.8-.8.4-.8.8-.8zm0 1.5c.4 0 .7-.3.7-.7 0-.4-.3-.7-.7-.7-.4 0-.7.3-.7.7.1.4.4.7.7.7zm-.1-.2h-.1v-1h.4c.2 0 .3.1.3.3 0 .2-.1.2-.2.3l.3.4h-.1l-.3-.4h-.2v.4zm0-.6h.1c.1 0 .3 0 .3-.2 0-.1-.1-.2-.2-.2h-.2v.4z" fill="#fff"/><path d="M7.9 15.6v26.9h34.2V15.6H7.9zm22 15.2v-.9h3.6v.9h-1.3v3.6h-1.1v-3.6h-1.2zm-3.8 3.6H25v-4.5h1.2l1.8 2.9v-2.9h1.1v4.5h-1.2l-1.8-2.9v2.9zm-2.2-2.7v.9H22v.9h2.1v.9H21v-4.5h3v.9h-2v.9h1.9zm-.3-3.7c-.3-.1-.6-.3-.8-.5-.2-.2-.4-.5-.5-.8-.1-.3-.2-.6-.2-1s.1-.7.2-1c.1-.3.3-.5.5-.7.2-.2.5-.4.8-.5.3-.1.6-.2 1-.2s.7.1 1 .2c.3.1.6.3.8.5.2.2.4.5.5.7.1.3.2.6.2 1s-.1.7-.2 1c-.1.3-.3.5-.5.8-.2.2-.5.4-.8.5-.3.1-.6.2-1 .2s-.7-.1-1-.2zm4.8 0v-4.5h1.7c.2 0 .4 0 .6.1.2 0 .4.1.6.2.2.1.3.2.4.4.1.2.1.4.1.6 0 .3-.1.6-.2.8-.2.2-.4.4-.7.4l1.2 1.9h-1.3l-1-1.8h-.4V28h-1zm-12-7.3l-2.2-3.4h21.7l-2.2 3.4H16.4zm4.4 4.7v.9h-1.7V28H18v-4.5h3v.9h-1.9v.9h1.7zm-4.3 4.5h1.7c.2 0 .4 0 .6.1.2 0 .4.1.6.2.2.1.3.2.4.4.1.2.1.4.1.6 0 .3-.1.6-.2.8-.2.2-.4.4-.7.4l1.2 1.9h-1.3l-1-1.8h-.4v1.8h-1.1v-4.4zm23.9 10.9H9.6V17.3H13l2.2 3.4h-1.3c-.6 0-1.1.5-1.1 1.1v14.3c0 .6.5 1.1 1.1 1.1H36c.6 0 1.1-.5 1.1-1.1V21.9c0-.6-.5-1.1-1.1-1.1h-1.3l2.2-3.4h3.4v23.4zM30.2 25.4c.1 0 .2 0 .3-.1.1 0 .1-.1.2-.2 0-.1.1-.2.1-.3 0-.1 0-.2-.1-.3 0-.1-.1-.1-.2-.2-.1 0-.1-.1-.2-.1h-.9v1.1h.6c0 .2.1.2.2.1zm-5.1 1.7c.2-.1.3-.2.4-.3.1-.1.2-.3.3-.4.1-.2.1-.4.1-.6 0-.2 0-.4-.1-.5-.1-.2-.2-.3-.3-.4-.1-.1-.2-.2-.4-.3-.2-.1-.3-.1-.5-.1s-.4 0-.5.1c-.2.1-.3.2-.4.3-.1.1-.2.3-.3.4-.1.2-.1.4-.1.5 0 .2 0 .4.1.6.1.2.2.3.3.4.1.1.2.2.4.3.2.1.3.1.5.1.1 0 .3-.1.5-.1zm-6.8 4.7c.1 0 .2 0 .3-.1.1 0 .1-.1.2-.2 0-.1.1-.2.1-.3 0-.1 0-.2-.1-.3 0-.1-.1-.1-.2-.2-.1 0-.1-.1-.2-.1h-.9v1.1h.5c.2.1.2.1.3.1z" fill-rule="evenodd" clip-rule="evenodd" fill="#fff"/></svg><svg width="38" height="38" viewBox="-5 -5 38 38" x="76" y="120"><path d="M9 18H6l4-4v-4h4l3-3 11 11h-3v10h-4v-8h-5v8H9V18zM6 1v7.5H4V6H2v2.5H0V25h7.5v-5.5h-5l6-6.5V8.5H13V1H6zM5 14H2v-3h3v3zm6-8H8V3h3v3z" fill="#999"/></svg><svg width="26" height="26" viewBox="-5 -5 26 26" x="218" y="56"><path d="M8 0C3.6 0 0 3.6 0 8s3.6 8 8 8 8-3.6 8-8-3.6-8-8-8zm0 14c-3.3 0-6-2.7-6-6s2.7-6 6-6 6 2.7 6 6-2.7 6-6 6zm0-2l4-6H4z" fill="#999"/></svg><svg width="34" height="34" viewBox="-5 -5 34 34" x="140" y="158"><path fill="#FFB81D" d="M21.4 8.4c-2.1 1.4-4.2 2.9-6.3 4.4-.9.6-2.3 1.8-3.4 1.8s-2.6-1.2-3.4-1.8C6.2 11.3 4.1 9.9 2 8.4 1.4 7.7 0 6.2 0 5c0-1.3.7-2.4 2.1-2.4h19.4c1.2 0 2.1 1 2.1 2.1.1 1.5-1 2.9-2.2 3.7zM24 19.2c0 1.2-1.3 2.2-2.4 2.2H2.1c-1.2 0-2.1-1-2.1-2.1V8.6c.4.4.9.8 1.4 1.2 2.2 1.5 4.5 3 6.7 4.6 1.1.8 2.5 1.8 4 1.8s2.9-1 4-1.8c2.2-1.6 4.4-3.1 6.7-4.6.5-.3.9-.7 1.2-1.2v10.6z"/></svg><svg width="22" height="22" viewBox="-5 -5 521.63 521.63" x="218" y="82"><path d="M392.858 292.354h-18.275c-2.668 0-4.86.854-6.562 2.572-1.717 1.708-2.57 3.897-2.57 6.563v91.36c0 12.56-4.47 23.313-13.416 32.26-8.945 8.945-19.7 13.415-32.264 13.415H82.223c-12.562 0-23.317-4.47-32.264-13.414-8.946-8.945-13.418-19.697-13.418-32.262V155.31c0-12.562 4.47-23.313 13.417-32.26 8.946-8.946 19.7-13.417 32.263-13.417h200.993c2.67 0 4.86-.86 6.57-2.57 1.71-1.713 2.566-3.9 2.566-6.567V82.22c0-2.66-.855-4.852-2.566-6.562-1.71-1.713-3.9-2.568-6.57-2.568H82.224c-22.648 0-42.016 8.042-58.102 24.125C8.042 113.297 0 132.665 0 155.313v237.542c0 22.647 8.042 42.02 24.123 58.096 16.086 16.086 35.454 24.13 58.102 24.13h237.543c22.646 0 42.018-8.044 58.102-24.13 16.084-16.075 24.127-35.445 24.127-58.094V301.5c0-2.67-.857-4.86-2.574-6.57-1.714-1.72-3.905-2.575-6.565-2.575zM506.2 41.97c-3.617-3.616-7.906-5.423-12.852-5.423H347.17c-4.947 0-9.232 1.807-12.846 5.424-3.617 3.617-5.43 7.9-5.43 12.85 0 4.95 1.812 9.232 5.43 12.85l50.246 50.247-186.146 186.15c-1.906 1.903-2.856 4.094-2.856 6.563 0 2.478.953 4.667 2.856 6.57l32.548 32.544c1.903 1.902 4.093 2.852 6.567 2.852s4.663-.947 6.565-2.852l186.148-186.148 50.25 50.248c3.615 3.617 7.898 5.426 12.848 5.426s9.233-1.81 12.853-5.426c3.617-3.616 5.424-7.897 5.424-12.847V54.817c-.003-4.95-1.815-9.23-5.428-12.846z" fill="#949494"/></svg><svg width="34" height="34" viewBox="-5 -5 34 34" x="38" y="158"><path fill="#3B5998" d="M17.8 4.6h-2.1c-1.6 0-2 .8-2 1.9V9h3.9l-.5 4h-3.4v10.2H9.6V13H6.2V9h3.4V6.1c0-3.4 2.1-5.2 5.1-5.2 1.4 0 2.7.1 3.1.2v3.5z"/></svg><svg width="34" height="34" viewBox="-5 -5 34 34" x="174" y="158"><path fill="#DD4B39" d="M15 17.7c0 .8-.2 1.6-.6 2.3-1.4 2.3-4.3 3.2-6.8 3.2-2 0-4.5-.5-5.6-2.4-.3-.5-.5-1.1-.5-1.8 0-1.5.9-2.8 2.2-3.5 1.6-1 3.6-1.2 5.4-1.3-.5-.6-.8-1.2-.8-2 0-.4.1-.8.3-1.1-.5-.1-.8-.1-1.1-.1-2.6 0-4.7-1.9-4.7-4.6 0-1.5.7-2.9 1.8-3.9C6.1 1.3 8.1.9 10 .9h5.6L13.7 2H12c1.2 1.1 2 2.2 2 3.9 0 3.5-3.2 3.9-3.2 5.6 0 1.8 4.2 2.4 4.2 6.2zm-1.9 1.1c0-1.8-1.8-2.9-3.1-3.8h-.6c-2.2 0-5.4.7-5.4 3.5 0 2.6 2.8 3.6 5 3.6 1.9-.2 4.1-1 4.1-3.3zm-2.3-9.4c.5-.6.7-1.3.7-2.1 0-2-1.2-5.3-3.6-5.3-.8 0-1.5.4-2 1-.4.5-.6 1.3-.6 2.1 0 2 1.1 5.2 3.6 5.2.6-.1 1.4-.4 1.9-.9zm11.8.8v1.4h-2.9v2.9h-1.4v-2.9h-2.8v-1.4h2.8V7.3h1.4v2.9h2.9z"/></svg><svg width="38" height="38" viewBox="-5 -5 38 38" x="114" y="120"><path fill="#999" d="M6 5V2L4.5 0 3 2v3H0v3h3v20h3V8h22V5H6zm17 18H12c-2.2 0-4-1.8-4-4v-5c0-2.2 1.8-4 4-4h11c2.2 0 4 1.8 4 4v5c0 2.2-1.8 4-4 4z"/></svg><svg width="38" height="38" viewBox="-5 -5 38 38" x="180"><path d="M27.8 13.4L24 10.2V3.1c0-.3-.2-.6-.6-.6H20c-.3 0-.6.2-.6.6v3.4L15.2 3c-.7-.6-1.9-.6-2.6 0L.2 13.4c-.2.2-.3.6-.1.8l1.1 1.3c.1.1.2.2.4.2s.3 0 .4-.1l12-10 12 10c.1.1.2.1.4.1h.1s.3-.1.4-.2l1.1-1.3c.1-.3 0-.6-.2-.8zM14 7L4 15.2v8.4c0 .7.5 1.2 1.1 1.2H12v-7h4v7h6.9c.6 0 1.1-.5 1.1-1.1v-8.4L14 7z" fill="#999"/></svg><svg width="38" height="38" viewBox="-5 -5 38 38" x="180" y="38"><path fill="#999" d="M24 3h-8.5V0h-3v3h-5v6H24l4-3-4-3zm-8.5 15h-3v8C11 26 8.8 27 8 28h12c-.8-1-3-2-4.5-2v-8zM0 13.5l4 3h16.5v-6H4l-4 3z"/></svg><svg width="22" height="30" viewBox="-5 -5 22 30" x="152" y="120"><path fill="#999" d="M10.2 0H1.8C.8 0 0 .8 0 1.8v16.4c0 1 .8 1.8 1.8 1.8h8.4c1 0 1.8-.8 1.8-1.8V1.8c0-1-.8-1.8-1.8-1.8zM4.5 1h3c.3 0 .5.2.5.5s-.2.5-.5.5h-3c-.3 0-.5-.2-.5-.5s.2-.5.5-.5zM6 19.4c-.8 0-1.4-.6-1.4-1.4s.6-1.4 1.4-1.4 1.4.6 1.4 1.4-.6 1.4-1.4 1.4zm5-4.1c0 .4-.3.7-.7.7H1.7c-.4 0-.7-.3-.7-.7V3.7c0-.4.3-.7.7-.7h8.6c.4 0 .7.3.7.7v11.6z"/></svg><svg width="38" height="38" viewBox="-5 -5 38 38" x="180" y="76"><path d="M27.8 13.4L24 10.2V3.1c0-.3-.2-.6-.6-.6H20c-.3 0-.6.2-.6.6v3.4L15.2 3c-.7-.6-1.9-.6-2.6 0L.2 13.4c-.2.2-.3.6-.1.8l1.1 1.3c.1.1.2.2.4.2s.3 0 .4-.1l12-10 12 10c.1.1.2.1.4.1h.1s.3-.1.4-.2l1.1-1.3c.1-.3 0-.6-.2-.8zM14 7L4 15.2v8.4c0 .7.5 1.2 1.1 1.2h17.8c.6 0 1.1-.5 1.1-1.1v-8.4L14 7zm.9 14.3v1.6c0 .1-.1.2-.2.2h-1.3c-.1 0-.2-.1-.2-.2v-1.6c-1.6-.2-2.2-1.2-2.2-1.2-.1-.1-.1-.2 0-.3l.7-.9s.1-.1.2-.1.1 0 .2.1c0 0 1 .9 2.2.9.7 0 1.4-.4 1.4-1.1s-.8-1-1.7-1.3c-1.5-.6-3-1.2-3-2.9 0-1.3.7-2.3 2.1-2.6v-1.6c0-.1.1-.2.2-.2h1.3c.1 0 .2.1.2.2v1.6c1.4.2 2 .9 2 .9.1.1.1.2 0 .3l-.6 1c0 .1-.1.1-.2.1h-.2s-.8-.7-1.8-.7c-.9 0-1.5.4-1.5 1 0 .7.8 1 1.8 1.4 1.3.5 2.7 1 2.7 2.7.2 1.3-.7 2.4-2.1 2.7z" fill="#999"/></svg><svg width="38" height="38" viewBox="-5 -5 38 38" x="180" y="114"><path fill="#999" d="M25 0H3C1.9 0 1 .9 1 2v24c0 1.1.9 2 2 2h22c1.1 0 2-.9 2-2V2c0-1.1-.9-2-2-2zM5 26c-1.1 0-2-.9-2-2s.9-2 2-2 2 .9 2 2-.9 2-2 2zm0-6c-1.1 0-2-.9-2-2s.9-2 2-2 2 .9 2 2-.9 2-2 2zm0-6c-1.1 0-2-.9-2-2s.9-2 2-2 2 .9 2 2-.9 2-2 2zm6 12c-1.1 0-2-.9-2-2s.9-2 2-2 2 .9 2 2-.9 2-2 2zm0-6c-1.1 0-2-.9-2-2s.9-2 2-2 2 .9 2 2-.9 2-2 2zm0-6c-1.1 0-2-.9-2-2s.9-2 2-2 2 .9 2 2-.9 2-2 2zm6 12c-1.1 0-2-.9-2-2s.9-2 2-2 2 .9 2 2-.9 2-2 2zm0-6c-1.1 0-2-.9-2-2s.9-2 2-2 2 .9 2 2-.9 2-2 2zm0-6c-1.1 0-2-.9-2-2s.9-2 2-2 2 .9 2 2-.9 2-2 2zm8 10c0 1.1-.9 2-2 2s-2-.9-2-2v-6c0-1.1.9-2 2-2s2 .9 2 2v6zm-2-10c-1.1 0-2-.9-2-2s.9-2 2-2 2 .9 2 2-.9 2-2 2zm2-7c0 .6-.5 1-1 1H4c-.6 0-1-.4-1-1V3c0-.6.4-1 1-1h20c.5 0 1 .4 1 1v4z"/></svg><svg width="38" height="38" viewBox="-5 -5 38 38" y="158"><path d="M7 19h8v2H7zm10-4h8v2h-8zm0 4h8v2h-8zm0-8h8v2h-8zm0-4h8v2h-8zM7 7h8v10H7zM4 3v4H0v16c0 1.1.9 2 2 2h24c1.1 0 2-.9 2-2V3H4zm0 19c0 .6-.4 1-1 1s-1-.4-1-1V9h2v13zm22 0c0 .6-.4 1-1 1H5.5c.3 0 .5-.5.5-.8V5h20v17z" fill="#999"/></svg><svg width="34" height="34" viewBox="-5 -5 34 34" x="72" y="158"><path fill="#CC2127" d="M12 22.3c-1 0-2-.1-2.9-.4.4-.6.8-1.4 1-2.2 0 0 .1-.5.7-2.8.3.7 1.4 1.3 2.5 1.3 3.3 0 5.6-3 5.6-7.1 0-3-2.6-5.9-6.5-5.9-4.9 0-7.3 3.5-7.3 6.4 0 1.8.7 3.3 2.1 3.9.2.1.4 0 .5-.3.1-.2.2-.6.2-.8.1-.3 0-.3-.1-.6-.4-.5-.7-1.1-.7-2-.1-2.5 1.9-4.9 5-4.9 2.8 0 4.3 1.7 4.3 4 0 3-1.3 5.5-3.3 5.5-1.1 0-1.9-.9-1.6-2 .3-1.3.9-2.7.9-3.6 0-.8-.5-1.6-1.4-1.6-1.1 0-2 1.1-2 2.7 0 0 0 1 .3 1.6C8.2 18.3 8 19.1 8 19.1c-.2.8-.2 1.6-.2 2.4-3.6-1.6-6.2-5.2-6.2-9.4C1.7 6.3 6.3 1.7 12 1.7S22.3 6.3 22.3 12 17.7 22.3 12 22.3z"/></svg><svg width="46" height="46" viewBox="-5 -5 46 46" x="120" y="60"><g fill="#999"><circle cx="25" cy="17.3" r="3.9"/><path d="M18 0C8.1 0 0 8.1 0 18s8.1 18 18 18 18-8.1 18-18C36 8 27.9 0 18 0zM5.1 18.6l-1.3-1.3 10.3-8.4 5.2 4.2c-.3.5-.6.9-.8 1.5l-4.4-3.8-9 7.8zm16.7 7.1h-5.1v-5.1h-5.1v5.1H6.4v-6.4l7.7-6.4 4 3.3c-.1.4-.1.8-.1 1.2 0 2.7 1.6 5.1 3.9 6.3v2h-.1zm6.2-3.4c-.9.5-1.9.8-3 .8-3.2 0-5.8-2.6-5.8-5.8s2.6-5.8 5.8-5.8 5.8 2.6 5.8 5.8c0 1.4-.5 2.7-1.4 3.7l2.8 2.8-1.4 1.4-2.8-2.9z"/></g></svg><svg width="38" height="38" viewBox="-5 -5 38 38" y="120"><path d="M1 28h5v-5H1v5zm14 0h5v-9h-5v9zm7 0h5V13h-5v15zM12 10l4 4 8-8 2 2 2-8-8 2 2 2-6 6-4-4L0 18l2 2 10-10zM8 28h5v-6H8v6z" fill="#999"/></svg><svg width="34" height="34" viewBox="-5 -5 34 34" x="106" y="158"><path fill="#55ACEE" d="M20.4 7.7v.6c0 5.7-4.4 12.3-12.3 12.3-2.5 0-4.7-.7-6.6-1.9.3 0 .7.1 1 .1 2 0 3.9-.7 5.4-1.8-1.9 0-3.5-1.3-4-3 .3 0 .5.1.8.1.4 0 .8-.1 1.1-.1-2-.4-3.5-2.1-3.5-4.2v-.1c.6.3 1.2.5 2 .5-1.2-1-2-2.3-2-3.8 0-.8.2-1.5.6-2.2C5 6.8 8.3 8.6 11.8 8.7c-.1-.3-.1-.7-.1-1 0-2.4 1.9-4.3 4.3-4.3 1.2 0 2.4.5 3.2 1.4 1-.2 1.9-.5 2.7-1-.3 1-1 1.8-1.9 2.4.9-.1 1.7-.3 2.5-.7-.5.8-1.3 1.6-2.1 2.2z"/></svg><svg width="30" height="30" viewBox="-5 -5 30 30" x="218"><path d="M10 10c1.38 0 2.56-.488 3.535-1.465S15 6.38 15 5s-.488-2.56-1.465-3.535S11.38 0 10 0C8.62 0 7.44.488 6.465 1.465S5 3.62 5 5s.488 2.56 1.465 3.535S8.62 10 10 10zm9.12 5.28c-.03-.44-.09-.91-.18-1.42-.093-.508-.208-.978-.347-1.413-.14-.434-.326-.856-.56-1.27-.235-.412-.504-.763-.808-1.054-.305-.29-.676-.523-1.113-.696-.438-.174-.923-.26-1.452-.26-.078 0-.26.092-.547.28-.286.186-.61.394-.97.624-.36.23-.83.44-1.406.627-.578.187-1.156.28-1.74.28-.58 0-1.16-.094-1.737-.28-.577-.187-1.046-.395-1.406-.625-.36-.23-.683-.437-.97-.624-.287-.187-.47-.28-.547-.28-.53 0-1.014.087-1.452.26-.438.174-.81.407-1.114.697-.302.29-.57.642-.805 1.054-.234.412-.42.835-.56 1.27-.14.434-.254.904-.345 1.413-.092.51-.153.98-.183 1.42-.03.438-.046.888-.046 1.348 0 1.043.32 1.865.953 2.47.635.6 1.478.903 2.528.903h11.38c1.05 0 1.893-.302 2.527-.904.634-.605.95-1.427.95-2.47 0-.46-.014-.91-.045-1.35z" fill="gray"/></svg></svg>