<?xml version="1.0" encoding="utf-8"?>
<!-- Generator: Adobe Illustrator 18.0.0, SVG Export Plug-In . SVG Version: 6.00 Build 0)  -->
<!DOCTYPE svg PUBLIC "-//W3C//DTD SVG 1.1//EN" "http://www.w3.org/Graphics/SVG/1.1/DTD/svg11.dtd">
<svg version="1.1" id="Layer_1" xmlns="http://www.w3.org/2000/svg" xmlns:xlink="http://www.w3.org/1999/xlink" x="0px" y="0px"
	 width="28px" height="28px" viewBox="0 0 28 28" enable-background="new 0 0 28 28" xml:space="preserve">
<g id="baseline_1_">
</g>
<g id="bgd-gray" display="none">
	<rect x="-48" y="-48" display="inline" fill="#7F7F7F" width="128" height="128"/>
</g>
<g id="bgd-black" display="none">
	<rect x="-48" y="-48" display="inline" width="128" height="128"/>
</g>
<g id="workspace">
	<g>
		<path fill="#999999" d="M22,10.9c0,4.4-4.9,8-11,8c-1,0-1.9-0.1-2.7-0.3c-1.3,0.9-2.8,1.6-4.3,2c-0.5,0.2-1,0.2-1.4,0.3l0,0
			c-0.2,0-0.5-0.2-0.5-0.5C2,20.2,2.2,20,2.4,19.8C3,19,3.7,18.5,4.2,17.1C1.6,15.7,0,13.4,0,10.9c0-4.4,4.9-8,11-8S22,6.6,22,10.9z
			 M2,10.9c0,1.7,1.2,3.4,3.2,4.5l1.5,0.9l-0.5,1.3c0.3-0.2,0.7-0.4,1-0.6l0.7-0.5l0.8,0.2c0.8,0.1,1.6,0.2,2.4,0.2c4.9,0,9-2.7,9-6
			s-4.1-6-9-6S2,7.6,2,10.9z M25.7,23.8c0.2,0.2,0.4,0.4,0.3,0.7S25.7,25,25.5,25C25,25,24.6,25,24.2,24.8c-1.6-0.4-3-1.1-4.3-2
			C18.9,22.8,18,23,17,23c-2.8,0-5.4-0.8-7.4-2.1c0.5,0,0.9,0.1,1.4,0.1c3.4,0,6.5-1,9-2.7c2.6-1.9,4-4.5,4-7.3
			c0-0.8-0.1-1.6-0.4-2.4c2.6,1.5,4.4,3.8,4.4,6.4c0,2.5-1.6,4.8-4.2,6.3C24.4,22.5,25.1,23.2,25.7,23.8z"/>
	</g>
</g>
</svg>
