<?xml version="1.0" encoding="utf-8"?>
<!-- Generator: Adobe Illustrator 18.0.0, SVG Export Plug-In . SVG Version: 6.00 Build 0)  -->
<!DOCTYPE svg PUBLIC "-//W3C//DTD SVG 1.1//EN" "http://www.w3.org/Graphics/SVG/1.1/DTD/svg11.dtd">
<svg version="1.1" id="Layer_1" xmlns="http://www.w3.org/2000/svg" xmlns:xlink="http://www.w3.org/1999/xlink" x="0px" y="0px"
	 width="28px" height="28px" viewBox="0 0 28 28" enable-background="new 0 0 28 28" xml:space="preserve">
<g id="baseline_1_">
</g>
<g id="bgd-gray" display="none">
	<rect x="-48" y="-48" display="inline" fill="#7F7F7F" width="128" height="128"/>
</g>
<g id="bgd-black" display="none">
	<rect x="-48" y="-48" display="inline" width="128" height="128"/>
</g>
<g id="workspace">
	<g>
		<path fill="#999999" d="M27.8,13.4L24,10.2V3.1c0-0.3-0.2-0.6-0.6-0.6H20c-0.3,0-0.6,0.2-0.6,0.6v3.4L15.2,3
			c-0.7-0.6-1.9-0.6-2.6,0L0.2,13.4C0,13.6-0.1,14,0.1,14.2l1.1,1.3c0.1,0.1,0.2,0.2,0.4,0.2s0.3,0,0.4-0.1l12-10l12,10
			c0.1,0.1,0.2,0.1,0.4,0.1c0,0,0,0,0.1,0s0.3-0.1,0.4-0.2l1.1-1.3C28.1,13.9,28,13.6,27.8,13.4z"/>
		<path fill="#999999" d="M14,7L4,15.2v0.1v8.3c0,0.7,0.5,1.2,1.1,1.2H12v-7h4v7h6.9c0.6,0,1.1-0.5,1.1-1.1v-8.3v-0.1L14,7z"/>
	</g>
</g>
</svg>
