<?xml version="1.0" encoding="utf-8"?>
<!-- Generator: Adobe Illustrator 18.0.0, SVG Export Plug-In . SVG Version: 6.00 Build 0)  -->
<!DOCTYPE svg PUBLIC "-//W3C//DTD SVG 1.1//EN" "http://www.w3.org/Graphics/SVG/1.1/DTD/svg11.dtd">
<svg version="1.1" id="Layer_1" xmlns="http://www.w3.org/2000/svg" xmlns:xlink="http://www.w3.org/1999/xlink" x="0px" y="0px"
	 width="36px" height="36px" viewBox="0 0 36 36" enable-background="new 0 0 36 36" xml:space="preserve">
<g id="baseline_1_">
</g>
<g id="bgd-gray" display="none">
	<rect x="-43.4" y="-43.4" display="inline" fill="#7F7F7F" width="128" height="128"/>
</g>
<g id="bgd-black" display="none">
	<rect x="-43.4" y="-43.4" display="inline" width="128" height="128"/>
</g>
<g id="workspace">
	<g>
		<circle fill="#999999" cx="25" cy="17.3" r="3.9"/>
		<path fill="#999999" d="M18,0C8.1,0,0,8.1,0,18s8.1,18,18,18s18-8.1,18-18C36,8,27.9,0,18,0z M5.1,18.6l-1.3-1.3l10.3-8.4l5.2,4.2
			c-0.3,0.5-0.6,0.9-0.8,1.5l-4.4-3.8L5.1,18.6z M21.8,25.7h-5.1v-5.1h-5.1v5.1H6.4v-6.4l7.7-6.4l4,3.3C18,16.6,18,17,18,17.4
			c0,2.7,1.6,5.1,3.9,6.3v2H21.8z M28,22.3c-0.9,0.5-1.9,0.8-3,0.8c-3.2,0-5.8-2.6-5.8-5.8s2.6-5.8,5.8-5.8s5.8,2.6,5.8,5.8
			c0,1.4-0.5,2.7-1.4,3.7l2.8,2.8l-1.4,1.4L28,22.3z"/>
	</g>
</g>
</svg>
