<?xml version="1.0" encoding="utf-8"?>
<!-- Generator: Adobe Illustrator 16.0.4, SVG Export Plug-In . SVG Version: 6.00 Build 0)  -->
<!DOCTYPE svg PUBLIC "-//W3C//DTD SVG 1.1//EN" "http://www.w3.org/Graphics/SVG/1.1/DTD/svg11.dtd">
<svg version="1.1" id="Capa_1" xmlns="http://www.w3.org/2000/svg" xmlns:xlink="http://www.w3.org/1999/xlink" x="0px" y="0px"
	 width="12px" height="12px" viewBox="0 0 511.625 511.627" enable-background="new 0 0 511.625 511.627"
	 xml:space="preserve">
<g>
	<g>
		<path fill="#949494" d="M392.858,292.354h-18.275c-2.668,0-4.859,0.854-6.562,2.572c-1.719,1.708-2.572,3.897-2.572,6.563v91.36
			c0,12.563-4.471,23.315-13.416,32.263c-8.945,8.944-19.701,13.414-32.264,13.414H82.224c-12.562,0-23.317-4.47-32.264-13.414
			c-8.945-8.946-13.417-19.698-13.417-32.263V155.31c0-12.562,4.471-23.313,13.417-32.259c8.947-8.947,19.702-13.418,32.264-13.418
			h200.993c2.67,0,4.859-0.859,6.57-2.57c1.711-1.713,2.566-3.9,2.566-6.567V82.221c0-2.662-0.855-4.853-2.566-6.563
			c-1.711-1.713-3.9-2.568-6.57-2.568H82.224c-22.648,0-42.016,8.042-58.102,24.125C8.042,113.297,0,132.665,0,155.313v237.542
			c0,22.647,8.042,42.019,24.123,58.096c16.086,16.084,35.454,24.13,58.102,24.13h237.543c22.646,0,42.018-8.046,58.102-24.13
			c16.084-16.077,24.127-35.447,24.127-58.096v-91.357c0-2.669-0.857-4.859-2.574-6.57
			C397.709,293.209,395.518,292.354,392.858,292.354z"/>
		<path fill="#949494" d="M506.2,41.971c-3.617-3.617-7.906-5.424-12.852-5.424H347.17c-4.947,0-9.232,1.807-12.846,5.424
			c-3.617,3.615-5.43,7.898-5.43,12.847c0,4.949,1.812,9.233,5.43,12.85l50.246,50.248L198.424,304.067
			c-1.906,1.902-2.856,4.093-2.856,6.562c0,2.479,0.953,4.668,2.856,6.571l32.548,32.544c1.903,1.902,4.093,2.852,6.567,2.852
			s4.665-0.947,6.567-2.852l186.148-186.148l50.25,50.248c3.615,3.617,7.898,5.426,12.848,5.426s9.232-1.809,12.852-5.426
			c3.617-3.616,5.424-7.897,5.424-12.847V54.818C511.625,49.866,509.813,45.586,506.2,41.971z"/>
	</g>
</g>
</svg>
