<?xml version="1.0" encoding="utf-8"?>
<!-- Generator: Adobe Illustrator 18.0.0, SVG Export Plug-In . SVG Version: 6.00 Build 0)  -->
<!DOCTYPE svg PUBLIC "-//W3C//DTD SVG 1.1//EN" "http://www.w3.org/Graphics/SVG/1.1/DTD/svg11.dtd">
<svg version="1.1" id="Layer_1" xmlns="http://www.w3.org/2000/svg" xmlns:xlink="http://www.w3.org/1999/xlink" x="0px" y="0px"
	 width="50px" height="50px" viewBox="0 0 50 50" enable-background="new 0 0 50 50" xml:space="preserve">
<path fill="#46928E" d="M38.3,50H11.7C5.3,50,0,44.7,0,38.3V11.7C0,5.3,5.3,0,11.7,0h26.6C44.7,0,50,5.3,50,11.7v26.6
	C50,44.7,44.7,50,38.3,50z"/>
<g>
	<g>
		<path fill="#FFFFFF" d="M5.9,7.5h1v0.6h0c0.2-0.4,0.6-0.7,1.1-0.7c0.1,0,0.2,0,0.3,0.1v0.9c-0.2,0-0.3-0.1-0.5-0.1
			c-0.9,0-1,0.8-1,1v2.1h-1V7.5z"/>
		<path fill="#FFFFFF" d="M9.5,9.8c0.1,0.6,0.5,0.9,1,0.9c0.5,0,0.8-0.2,1-0.5l0.7,0.5c-0.5,0.6-1,0.8-1.6,0.8c-1.2,0-2.1-0.8-2.1-2
			c0-1.2,0.9-2,2.1-2c1.1,0,1.8,0.8,1.8,2.1v0.3H9.5z M11.5,9.1c0-0.6-0.4-0.9-1-0.9c-0.6,0-0.9,0.4-1,0.9H11.5z"/>
		<path fill="#FFFFFF" d="M15.5,10.8L15.5,10.8c-0.3,0.4-0.7,0.6-1.3,0.6c-0.7,0-1.4-0.4-1.4-1.2c0-1.3,1.5-1.3,2.4-1.3h0.2V8.9
			c0-0.5-0.4-0.7-0.9-0.7c-0.4,0-0.8,0.2-1,0.4L13.1,8c0.4-0.4,1-0.6,1.6-0.6c1.7,0,1.7,1.2,1.7,1.7v2.2h-0.9V10.8z M15.4,9.6h-0.2
			c-0.5,0-1.5,0-1.5,0.6c0,0.4,0.4,0.5,0.7,0.5c0.7,0,1-0.3,1-0.9V9.6z"/>
		<path fill="#FFFFFF" d="M17.1,5.3h1v6.1h-1V5.3z"/>
		<path fill="#FFFFFF" d="M18.4,8.3V7.5h0.8V6.4h1v1.1h1.1v0.8h-1.1V10c0,0.4,0.1,0.6,0.5,0.6c0.2,0,0.4,0,0.5-0.1v0.8
			c-0.2,0.1-0.5,0.1-0.8,0.1c-1,0-1.3-0.5-1.3-1.4V8.3H18.4z"/>
		<path fill="#FFFFFF" d="M23.6,7.4c1.2,0,2.1,0.8,2.1,2c0,1.2-0.9,2-2.1,2c-1.2,0-2.1-0.8-2.1-2C21.5,8.2,22.5,7.4,23.6,7.4z
			 M23.6,10.6c0.7,0,1.1-0.6,1.1-1.2c0-0.6-0.4-1.2-1.1-1.2c-0.7,0-1.1,0.6-1.1,1.2C22.5,10,22.9,10.6,23.6,10.6z"/>
		<path fill="#FFFFFF" d="M26.2,7.5h1v0.6h0c0.2-0.4,0.6-0.7,1.1-0.7c0.1,0,0.2,0,0.3,0.1v0.9c-0.2,0-0.3-0.1-0.5-0.1
			c-0.9,0-1,0.8-1,1v2.1h-1V7.5z"/>
		<path fill="#FFFFFF" d="M28.7,10.2c0.3,0,0.6,0.3,0.6,0.6c0,0.3-0.3,0.6-0.6,0.6c-0.3,0-0.6-0.3-0.6-0.6
			C28,10.5,28.3,10.2,28.7,10.2z"/>
		<path fill="#FFFFFF" d="M32.5,8.7c-0.2-0.2-0.5-0.4-0.7-0.4c-0.7,0-1.1,0.6-1.1,1.2c0,0.6,0.4,1.2,1.1,1.2c0.3,0,0.6-0.1,0.7-0.4
			l0.6,0.7c-0.4,0.4-1.1,0.5-1.4,0.5c-1.2,0-2.1-0.8-2.1-2c0-1.2,0.9-2,2.1-2c0.5,0,1,0.2,1.4,0.6L32.5,8.7z"/>
		<path fill="#FFFFFF" d="M35.4,7.4c1.2,0,2.1,0.8,2.1,2c0,1.2-0.9,2-2.1,2c-1.2,0-2.1-0.8-2.1-2C33.3,8.2,34.3,7.4,35.4,7.4z
			 M35.4,10.6c0.7,0,1.1-0.6,1.1-1.2c0-0.6-0.4-1.2-1.1-1.2c-0.7,0-1.1,0.6-1.1,1.2C34.3,10,34.7,10.6,35.4,10.6z"/>
		<path fill="#FFFFFF" d="M38.1,7.5H39v0.6h0c0.2-0.4,0.5-0.7,1.2-0.7c0.6,0,1,0.2,1.2,0.7c0.3-0.5,0.7-0.7,1.3-0.7
			c1,0,1.4,0.7,1.4,1.7v2.3h-1V9.2c0-0.5-0.1-0.9-0.7-0.9c-0.6,0-0.8,0.5-0.8,1v2.1h-1V9.1c0-0.5-0.2-0.8-0.7-0.8
			c-0.6,0-0.9,0.5-0.9,1v2.1h-1V7.5z"/>
	</g>
	<g>
		<path fill="#FFFFFF" d="M45.4,7.4c0.4,0,0.8,0.4,0.8,0.8c0,0.4-0.4,0.8-0.8,0.8c-0.4,0-0.8-0.4-0.8-0.8C44.6,7.8,45,7.4,45.4,7.4z
			 M45.4,8.9c0.4,0,0.7-0.3,0.7-0.7c0-0.4-0.3-0.7-0.7-0.7c-0.4,0-0.7,0.3-0.7,0.7C44.8,8.6,45.1,8.9,45.4,8.9z M45.3,8.7h-0.1V7.7
			h0.4c0.2,0,0.3,0.1,0.3,0.3c0,0.2-0.1,0.2-0.2,0.3l0.3,0.4h-0.1l-0.3-0.4h-0.2V8.7z M45.3,8.1h0.1c0.1,0,0.3,0,0.3-0.2
			c0-0.1-0.1-0.2-0.2-0.2h-0.2V8.1z"/>
	</g>
</g>
<g>
	<path fill-rule="evenodd" clip-rule="evenodd" fill="#FFFFFF" d="M7.9,15.6v26.9h34.2V15.6H7.9z M29.9,30.8v-0.9h3.6v0.9h-1.3v3.6
		h-1.1v-3.6H29.9z M26.1,34.4H25v-4.5h1.2l1.8,2.9h0l0-2.9h1.1v4.5h-1.2l-1.8-2.9h0L26.1,34.4z M23.9,31.7v0.9H22v0.9h2.1v0.9H21
		v-4.5h3v0.9h-2v0.9H23.9z M23.6,28c-0.3-0.1-0.6-0.3-0.8-0.5c-0.2-0.2-0.4-0.5-0.5-0.8c-0.1-0.3-0.2-0.6-0.2-1c0-0.4,0.1-0.7,0.2-1
		c0.1-0.3,0.3-0.5,0.5-0.7c0.2-0.2,0.5-0.4,0.8-0.5c0.3-0.1,0.6-0.2,1-0.2c0.4,0,0.7,0.1,1,0.2c0.3,0.1,0.6,0.3,0.8,0.5
		c0.2,0.2,0.4,0.5,0.5,0.7c0.1,0.3,0.2,0.6,0.2,1c0,0.4-0.1,0.7-0.2,1c-0.1,0.3-0.3,0.5-0.5,0.8c-0.2,0.2-0.5,0.4-0.8,0.5
		c-0.3,0.1-0.6,0.2-1,0.2C24.2,28.2,23.9,28.1,23.6,28z M28.4,28v-4.5h1.7c0.2,0,0.4,0,0.6,0.1c0.2,0,0.4,0.1,0.6,0.2
		c0.2,0.1,0.3,0.2,0.4,0.4c0.1,0.2,0.1,0.4,0.1,0.6c0,0.3-0.1,0.6-0.2,0.8c-0.2,0.2-0.4,0.4-0.7,0.4l1.2,1.9h-1.3l-1-1.8h-0.4V28
		H28.4z M16.4,20.7l-2.2-3.4h21.7l-2.2,3.4H16.4z M20.8,25.4v0.9h-1.7V28H18v-4.5h3v0.9h-1.9v0.9H20.8z M16.5,29.9h1.7
		c0.2,0,0.4,0,0.6,0.1c0.2,0,0.4,0.1,0.6,0.2c0.2,0.1,0.3,0.2,0.4,0.4c0.1,0.2,0.1,0.4,0.1,0.6c0,0.3-0.1,0.6-0.2,0.8
		c-0.2,0.2-0.4,0.4-0.7,0.4l1.2,1.9h-1.3l-1-1.8h-0.4v1.8h-1.1V29.9z M40.4,40.8H9.6V17.3H13l2.2,3.4h-1.3c-0.6,0-1.1,0.5-1.1,1.1
		v14.3c0,0.6,0.5,1.1,1.1,1.1h22.1c0.6,0,1.1-0.5,1.1-1.1V21.9c0-0.6-0.5-1.1-1.1-1.1h-1.3l2.2-3.4h3.4V40.8z"/>
	<path fill-rule="evenodd" clip-rule="evenodd" fill="#FFFFFF" d="M30.2,25.4c0.1,0,0.2,0,0.3-0.1c0.1,0,0.1-0.1,0.2-0.2
		c0-0.1,0.1-0.2,0.1-0.3c0-0.1,0-0.2-0.1-0.3c0-0.1-0.1-0.1-0.2-0.2c-0.1,0-0.1-0.1-0.2-0.1c-0.1,0-0.2,0-0.3,0h-0.6v1.1H30
		C30,25.5,30.1,25.5,30.2,25.4z"/>
	<path fill-rule="evenodd" clip-rule="evenodd" fill="#FFFFFF" d="M25.1,27.1c0.2-0.1,0.3-0.2,0.4-0.3c0.1-0.1,0.2-0.3,0.3-0.4
		c0.1-0.2,0.1-0.4,0.1-0.6c0-0.2,0-0.4-0.1-0.5c-0.1-0.2-0.2-0.3-0.3-0.4c-0.1-0.1-0.2-0.2-0.4-0.3c-0.2-0.1-0.3-0.1-0.5-0.1
		c-0.2,0-0.4,0-0.5,0.1c-0.2,0.1-0.3,0.2-0.4,0.3c-0.1,0.1-0.2,0.3-0.3,0.4c-0.1,0.2-0.1,0.4-0.1,0.5c0,0.2,0,0.4,0.1,0.6
		c0.1,0.2,0.2,0.3,0.3,0.4c0.1,0.1,0.2,0.2,0.4,0.3c0.2,0.1,0.3,0.1,0.5,0.1C24.7,27.2,24.9,27.1,25.1,27.1z"/>
	<path fill-rule="evenodd" clip-rule="evenodd" fill="#FFFFFF" d="M18.3,31.8c0.1,0,0.2,0,0.3-0.1c0.1,0,0.1-0.1,0.2-0.2
		c0-0.1,0.1-0.2,0.1-0.3c0-0.1,0-0.2-0.1-0.3c0-0.1-0.1-0.1-0.2-0.2c-0.1,0-0.1-0.1-0.2-0.1c-0.1,0-0.2,0-0.3,0h-0.6v1.1h0.5
		C18.2,31.8,18.2,31.8,18.3,31.8z"/>
</g>
</svg>
