<?xml version="1.0" encoding="utf-8"?>
<!-- Generator: Adobe Illustrator 18.0.0, SVG Export Plug-In . SVG Version: 6.00 Build 0)  -->
<!DOCTYPE svg PUBLIC "-//W3C//DTD SVG 1.1//EN" "http://www.w3.org/Graphics/SVG/1.1/DTD/svg11.dtd">
<svg version="1.1" id="Layer_1_copy_3" xmlns="http://www.w3.org/2000/svg" xmlns:xlink="http://www.w3.org/1999/xlink" x="0px"
	 y="0px" width="24px" height="24px" viewBox="0 0 24 24" enable-background="new 0 0 24 24" xml:space="preserve">
<g>
	<path fill="#FFB81D" d="M21.4,8.4c-2.1,1.4-4.2,2.9-6.3,4.4c-0.9,0.6-2.3,1.8-3.4,1.8l0,0l0,0c-1.1,0-2.6-1.2-3.4-1.8
		C6.2,11.3,4.1,9.9,2,8.4C1.4,7.7,0,6.2,0,5c0-1.3,0.7-2.4,2.1-2.4h19.4c1.2,0,2.1,1,2.1,2.1C23.7,6.2,22.6,7.6,21.4,8.4z M24,19.2
		c0,1.2-1.3,2.2-2.4,2.2H2.1c-1.2,0-2.1-1-2.1-2.1V8.6C0.4,9,0.9,9.4,1.4,9.8c2.2,1.5,4.5,3,6.7,4.6c1.1,0.8,2.5,1.8,4,1.8l0,0l0,0
		c1.5,0,2.9-1,4-1.8c2.2-1.6,4.4-3.1,6.7-4.6c0.5-0.3,0.9-0.7,1.2-1.2V19.2L24,19.2z"/>
</g>
</svg>
