<?xml version="1.0" encoding="utf-8"?>
<!-- Generator: Adobe Illustrator 18.0.0, SVG Export Plug-In . SVG Version: 6.00 Build 0)  -->
<!DOCTYPE svg PUBLIC "-//W3C//DTD SVG 1.1//EN" "http://www.w3.org/Graphics/SVG/1.1/DTD/svg11.dtd">
<svg version="1.1" id="Layer_1" xmlns="http://www.w3.org/2000/svg" xmlns:xlink="http://www.w3.org/1999/xlink" x="0px" y="0px"
	 width="12px" height="20px" viewBox="0 0 12 20" enable-background="new 0 0 12 20" xml:space="preserve">
<g id="baseline">
</g>
<g id="bgd-gray" display="none">
	<rect x="-48" y="-48" display="inline" fill="#7F7F7F" width="128" height="128"/>
</g>
<g id="bgd-black" display="none">
	<rect x="-48" y="-48" display="inline" width="128" height="128"/>
</g>
<g id="workspace">
	<path fill="#999999" d="M10.2,0H1.8C0.8,0,0,0.8,0,1.8v16.4c0,1,0.8,1.8,1.8,1.8h8.4c1,0,1.8-0.8,1.8-1.8V1.8C12,0.8,11.2,0,10.2,0
		z M4.5,1h3C7.8,1,8,1.2,8,1.5S7.8,2,7.5,2h-3C4.2,2,4,1.8,4,1.5S4.2,1,4.5,1z M6,19.4c-0.8,0-1.4-0.6-1.4-1.4s0.6-1.4,1.4-1.4
		s1.4,0.6,1.4,1.4S6.8,19.4,6,19.4z M11,15.3c0,0.4-0.3,0.7-0.7,0.7H1.7C1.3,16,1,15.7,1,15.3V3.7C1,3.3,1.3,3,1.7,3h8.6
		C10.7,3,11,3.3,11,3.7V15.3z"/>
</g>
</svg>
