<?xml version="1.0" encoding="utf-8"?>
<!-- Generator: Adobe Illustrator 18.0.0, SVG Export Plug-In . SVG Version: 6.00 Build 0)  -->
<!DOCTYPE svg PUBLIC "-//W3C//DTD SVG 1.1//EN" "http://www.w3.org/Graphics/SVG/1.1/DTD/svg11.dtd">
<svg version="1.1" xmlns="http://www.w3.org/2000/svg" xmlns:xlink="http://www.w3.org/1999/xlink" x="0px" y="0px" width="50px"
	 height="50px" viewBox="0 0 50 50" enable-background="new 0 0 50 50" xml:space="preserve">
<g id="Layer_1">
	<g>
		<g>
			<g opacity="3.000000e-02">
				<path fill-rule="evenodd" clip-rule="evenodd" d="M10.4,1.5h22.5c0.8,0,1.4,0.6,1.4,1.4v39.6c0,0.8-0.6,1.4-1.4,1.4H10.4
					c-0.8,0-1.4-0.6-1.4-1.4V2.9C9,2.1,9.6,1.5,10.4,1.5z"/>
			</g>
			<g opacity="4.000000e-02">
				<path fill-rule="evenodd" clip-rule="evenodd" d="M10.5,1.6h22.3c0.8,0,1.4,0.6,1.4,1.4v39.2c0,0.8-0.6,1.4-1.4,1.4H10.5
					c-0.8,0-1.4-0.6-1.4-1.4V3C9.1,2.2,9.7,1.6,10.5,1.6z"/>
			</g>
			<g opacity="6.000000e-02">
				<path fill-rule="evenodd" clip-rule="evenodd" d="M10.6,1.7h22.1c0.8,0,1.4,0.6,1.4,1.4v38.8c0,0.8-0.6,1.4-1.4,1.4H10.6
					c-0.8,0-1.4-0.6-1.4-1.4V3.1C9.2,2.3,9.8,1.7,10.6,1.7z"/>
			</g>
			<g opacity="8.000000e-02">
				<path fill-rule="evenodd" clip-rule="evenodd" d="M10.7,1.8h21.9c0.8,0,1.4,0.6,1.4,1.4v38.4c0,0.8-0.6,1.4-1.4,1.4H10.7
					c-0.8,0-1.4-0.6-1.4-1.4V3.2C9.3,2.4,9.9,1.8,10.7,1.8z"/>
			</g>
			<g>
				<path fill-rule="evenodd" clip-rule="evenodd" d="M10.8,1.9h21.7c0.8,0,1.4,0.6,1.4,1.4v38c0,0.8-0.6,1.4-1.4,1.4H10.8
					c-0.8,0-1.4-0.6-1.4-1.4v-38C9.4,2.5,10,1.9,10.8,1.9z"/>
			</g>
			<path fill-rule="evenodd" clip-rule="evenodd" fill="#7ABAB0" d="M11.6,4.8h20.1v32.8H11.6V4.8z"/>
			<path opacity="0.1" fill-rule="evenodd" clip-rule="evenodd" fill="#FFFFFF" d="M33.9,3.8V3.3c0-0.8-0.6-1.4-1.4-1.4H10.8
				c-0.8,0-1.4,0.6-1.4,1.4v38c0,0.3,0.1,0.7,0.3,0.9C12.1,15.5,28,6.3,33.9,3.8z"/>
			<path opacity="0.1" fill-rule="evenodd" clip-rule="evenodd" fill="#FFFFFF" d="M28.3,1.9H10.8c-0.8,0-1.4,0.6-1.4,1.4v19.5
				C14,10.3,22.1,4.5,28.3,1.9z"/>
		</g>
		<g opacity="3.000000e-02">
			<path fill-rule="evenodd" clip-rule="evenodd" d="M23,9h15.2c1.6,0,2.8,1.3,2.8,2.8v33.8c0,1.6-1.3,2.8-2.8,2.8H23
				c-1.6,0-2.8-1.3-2.8-2.8V11.8C20.1,10.3,21.4,9,23,9z"/>
		</g>
		<g opacity="4.000000e-02">
			<path fill-rule="evenodd" clip-rule="evenodd" d="M23.1,9.1h15c1.6,0,2.8,1.3,2.8,2.8v33.4c0,1.6-1.3,2.8-2.8,2.8h-15
				c-1.6,0-2.8-1.3-2.8-2.8V11.9C20.2,10.4,21.5,9.1,23.1,9.1z"/>
		</g>
		<g>
			<g opacity="6.000000e-02">
				<path fill-rule="evenodd" clip-rule="evenodd" d="M23.2,9.2H38c1.6,0,2.8,1.3,2.8,2.8v33c0,1.6-1.3,2.8-2.8,2.8H23.2
					c-1.6,0-2.8-1.3-2.8-2.8V12C20.3,10.5,21.6,9.2,23.2,9.2z"/>
			</g>
			<g opacity="8.000000e-02">
				<path fill-rule="evenodd" clip-rule="evenodd" d="M23.3,9.3h14.6c1.6,0,2.8,1.3,2.8,2.8v32.6c0,1.6-1.3,2.8-2.8,2.8H23.3
					c-1.6,0-2.8-1.3-2.8-2.8V12.1C20.4,10.6,21.7,9.3,23.3,9.3z"/>
			</g>
			<g>
				<path fill-rule="evenodd" clip-rule="evenodd" fill="#FFFFFF" d="M23.4,9.4h14.4c1.6,0,2.8,1.3,2.8,2.8v32.3
					c0,1.6-1.3,2.8-2.8,2.8H23.4c-1.6,0-2.8-1.3-2.8-2.8V12.2C20.5,10.7,21.8,9.4,23.4,9.4z"/>
			</g>
			<path fill="#CCCBCB" d="M30.6,46.5c-1.4,0-2.5-1.1-2.5-2.5c0-1.4,1.1-2.5,2.5-2.5c1.4,0,2.5,1.1,2.5,2.5
				C33.1,45.4,32,46.5,30.6,46.5z M30.6,42.1c-1.1,0-1.9,0.9-1.9,1.9c0,1.1,0.9,1.9,1.9,1.9s1.9-0.9,1.9-1.9
				C32.5,42.9,31.6,42.1,30.6,42.1z"/>
			<path fill-rule="evenodd" clip-rule="evenodd" fill="#1C6067" d="M21.6,13.9h17.8v26.8H21.6V13.9z"/>
			<path fill-rule="evenodd" clip-rule="evenodd" fill="#BABABB" d="M28.7,11.6h3.8c0.2,0,0.4,0.2,0.4,0.4v0c0,0.2-0.2,0.4-0.4,0.4
				h-3.8c-0.2,0-0.4-0.2-0.4-0.4v0C28.3,11.8,28.5,11.6,28.7,11.6z"/>
			<path opacity="5.000000e-02" fill-rule="evenodd" clip-rule="evenodd" fill="#FFFFFF" d="M40.6,11.8c-0.2-1.4-1.4-2.4-2.8-2.4
				H23.4c-1.6,0-2.8,1.3-2.8,2.8v32.3c0,0.6,0.2,1.2,0.5,1.7C23.4,23,34.8,14.6,40.6,11.8z"/>
			<path opacity="5.000000e-02" fill-rule="evenodd" clip-rule="evenodd" fill="#FFFFFF" d="M34.4,9.4H23.4c-1.6,0-2.8,1.3-2.8,2.8
				v14C24.1,16.5,29.7,11.7,34.4,9.4z"/>
		</g>
	</g>
</g>
<g id="Layer_1_copy" display="none">
	<g display="inline">
		
			<image overflow="visible" width="48" height="69" id="VdEhJo_1_" xlink:href="61B508E05F20DD83.jpg"  transform="matrix(18.5507 0 0 18.5507 220.1304 25)">
		</image>
	</g>
	<g display="inline">
		<path fill-rule="evenodd" clip-rule="evenodd" fill="#765EA7" d="M820.7,71.1h568.4c20.6,0,37.3,16.7,37.3,37.3v996.5
			c0,20.6-16.7,37.3-37.3,37.3H820.7c-20.6,0-37.3-16.7-37.3-37.3V108.4C783.4,87.8,800.1,71.1,820.7,71.1z"/>
		<path fill-rule="evenodd" clip-rule="evenodd" fill="#765EA7" d="M842.2,148.6h525.9V1007H842.2V148.6z"/>
		<path fill-rule="evenodd" clip-rule="evenodd" fill="#765EA7" d="M1485.1,100.6c0,0-701.6,184.3-701.6,1217.2h701.6V100.6z"/>
		<path fill-rule="evenodd" clip-rule="evenodd" fill="#765EA7" d="M1485.1,12.9c0,0-848.9,67.3-789.3,1304.9h789.3V12.9z"/>
	</g>
	<path display="inline" fill-rule="evenodd" clip-rule="evenodd" fill="#765EA7" d="M1150.3,268h377.4c41.2,0,74.5,33.4,74.5,74.5
		v845c0,41.2-33.4,74.5-74.5,74.5h-377.4c-41.2,0-74.5-33.4-74.5-74.5v-845C1075.8,301.3,1109.1,268,1150.3,268z"/>
	<path display="inline" fill-rule="evenodd" clip-rule="evenodd" fill="#765EA7" d="M1338.7,1115.9c32.3,0,58.5,26.1,58.5,58.2
		c0,32.2-26.2,58.2-58.5,58.2s-58.5-26.1-58.5-58.2C1280.2,1142,1306.4,1115.9,1338.7,1115.9z"/>
	<path display="inline" fill-rule="evenodd" clip-rule="evenodd" fill="#765EA7" d="M1660.5,209.5c0,0-729-9.8-669.6,1227.8h669.6
		V209.5z"/>
	<path display="inline" fill-rule="evenodd" clip-rule="evenodd" fill="#765EA7" d="M1689.7,297.2c0,0-611.5,136.4-611.5,1169.3
		h611.5V297.2z"/>
	<path display="inline" fill-rule="evenodd" clip-rule="evenodd" fill="#765EA7" d="M1289.5,326.2h98.4c5.1,0,9.3,4.2,9.3,9.3v11.1
		c0,5.1-4.2,9.3-9.3,9.3h-98.4c-5.1,0-9.3-4.2-9.3-9.3v-11.1C1280.2,330.4,1284.4,326.2,1289.5,326.2z"/>
	<path display="inline" fill-rule="evenodd" clip-rule="evenodd" fill="#765EA7" d="M1104.9,385h467.7v701.2h-467.7V385z"/>
	
		<rect x="1368.1" y="148.6" display="inline" fill-rule="evenodd" clip-rule="evenodd" fill="#765EA7" width="58.2" height="119.4"/>
</g>
</svg>
