<?xml version="1.0" encoding="utf-8"?>
<!-- Generator: Adobe Illustrator 18.0.0, SVG Export Plug-In . SVG Version: 6.00 Build 0)  -->
<!DOCTYPE svg PUBLIC "-//W3C//DTD SVG 1.1//EN" "http://www.w3.org/Graphics/SVG/1.1/DTD/svg11.dtd">
<svg version="1.1" id="Layer_1" xmlns="http://www.w3.org/2000/svg" xmlns:xlink="http://www.w3.org/1999/xlink" x="0px" y="0px"
	 width="28px" height="28px" viewBox="0 0 28 28" enable-background="new 0 0 28 28" xml:space="preserve">
<g id="baseline_1_">
</g>
<g id="bgd-gray" display="none">
	<rect x="-48" y="-48" display="inline" fill="#7F7F7F" width="128" height="128"/>
</g>
<g id="bgd-black" display="none">
	<rect x="-48" y="-48" display="inline" width="128" height="128"/>
</g>
<g id="workspace">
	<path fill="#999999" d="M1,28h5v-5H1V28z"/>
	<path fill="#999999" d="M15,28h5v-9h-5V28z"/>
	<path fill="#999999" d="M22,28h5V13h-5V28z"/>
	<path fill="#999999" d="M12,10l4,4l8-8l2,2l2-8l-8,2l2,2l-6,6l-4-4L0,18l2,2L12,10z"/>
	<path fill="#999999" d="M8,28h5v-6H8V28z"/>
</g>
</svg>
