<?xml version="1.0" encoding="utf-8"?>
<!-- Generator: Adobe Illustrator 18.0.0, SVG Export Plug-In . SVG Version: 6.00 Build 0)  -->
<!DOCTYPE svg PUBLIC "-//W3C//DTD SVG 1.1//EN" "http://www.w3.org/Graphics/SVG/1.1/DTD/svg11.dtd">
<svg version="1.1" id="Layer_1" xmlns="http://www.w3.org/2000/svg" xmlns:xlink="http://www.w3.org/1999/xlink" x="0px" y="0px"
	 width="28px" height="28px" viewBox="0 0 28 28" enable-background="new 0 0 28 28" xml:space="preserve">
<g id="baseline_1_">
</g>
<g id="bgd-gray" display="none">
	<rect x="-48" y="-48" display="inline" fill="#7F7F7F" width="128" height="128"/>
</g>
<g id="bgd-black" display="none">
	<rect x="-48" y="-48" display="inline" width="128" height="128"/>
</g>
<g id="workspace">
	<g>
		<path fill="#999999" d="M27.8,13.4L24,10.2V3.1c0-0.3-0.2-0.6-0.6-0.6H20c-0.3,0-0.6,0.2-0.6,0.6v3.4L15.2,3
			c-0.7-0.6-1.9-0.6-2.6,0L0.2,13.4C0,13.6-0.1,14,0.1,14.2l1.1,1.3c0.1,0.1,0.2,0.2,0.4,0.2s0.3,0,0.4-0.1l12-10l12,10
			c0.1,0.1,0.2,0.1,0.4,0.1c0,0,0,0,0.1,0s0.3-0.1,0.4-0.2l1.1-1.3C28.1,13.9,28,13.6,27.8,13.4z"/>
		<path fill="#999999" d="M14,7L4,15.2v0.1v8.3c0,0.7,0.5,1.2,1.1,1.2h17.8c0.6,0,1.1-0.5,1.1-1.1v-8.3v-0.1L14,7z M14.9,21.3v1.6
			c0,0.1-0.1,0.2-0.2,0.2h-1.3c-0.1,0-0.2-0.1-0.2-0.2v-1.6c-1.6-0.2-2.2-1.2-2.2-1.2c-0.1-0.1-0.1-0.2,0-0.3l0.7-0.9
			c0,0,0.1-0.1,0.2-0.1c0.1,0,0.1,0,0.2,0.1c0,0,1,0.9,2.2,0.9c0.7,0,1.4-0.4,1.4-1.1s-0.8-1-1.7-1.3c-1.5-0.6-3-1.2-3-2.9
			c0-1.3,0.7-2.3,2.1-2.6v-1.6c0-0.1,0.1-0.2,0.2-0.2h1.3c0.1,0,0.2,0.1,0.2,0.2v1.6c1.4,0.2,2,0.9,2,0.9c0.1,0.1,0.1,0.2,0,0.3
			l-0.6,1c0,0.1-0.1,0.1-0.2,0.1c-0.1,0-0.1,0-0.2,0c0,0-0.8-0.7-1.8-0.7c-0.9,0-1.5,0.4-1.5,1c0,0.7,0.8,1,1.8,1.4
			c1.3,0.5,2.7,1,2.7,2.7C17.2,19.9,16.3,21,14.9,21.3z"/>
	</g>
</g>
</svg>
