<?xml version="1.0" encoding="utf-8"?>
<!-- Generator: Adobe Illustrator 18.0.0, SVG Export Plug-In . SVG Version: 6.00 Build 0)  -->
<!DOCTYPE svg PUBLIC "-//W3C//DTD SVG 1.1//EN" "http://www.w3.org/Graphics/SVG/1.1/DTD/svg11.dtd">
<svg version="1.1" id="Layer_1" xmlns="http://www.w3.org/2000/svg" xmlns:xlink="http://www.w3.org/1999/xlink" x="0px" y="0px"
	 width="24px" height="24px" viewBox="0 0 24 24" enable-background="new 0 0 24 24" xml:space="preserve">
<g>
	<path fill="#55ACEE" d="M20.4,7.7c0,0.2,0,0.4,0,0.6c0,5.7-4.4,12.3-12.3,12.3c-2.5,0-4.7-0.7-6.6-1.9c0.3,0,0.7,0.1,1,0.1
		c2,0,3.9-0.7,5.4-1.8c-1.9,0-3.5-1.3-4-3c0.3,0,0.5,0.1,0.8,0.1c0.4,0,0.8-0.1,1.1-0.1c-2-0.4-3.5-2.1-3.5-4.2c0,0,0,0,0-0.1
		c0.6,0.3,1.2,0.5,2,0.5c-1.2-1-2-2.3-2-3.8c0-0.8,0.2-1.5,0.6-2.2C5,6.8,8.3,8.6,11.8,8.7c-0.1-0.3-0.1-0.7-0.1-1
		c0-2.4,1.9-4.3,4.3-4.3c1.2,0,2.4,0.5,3.2,1.4c1-0.2,1.9-0.5,2.7-1c-0.3,1-1,1.8-1.9,2.4c0.9-0.1,1.7-0.3,2.5-0.7
		C22,6.3,21.2,7.1,20.4,7.7z"/>
</g>
</svg>
