<?xml version="1.0" encoding="utf-8"?>
<!-- Generator: Adobe Illustrator 16.0.4, SVG Export Plug-In . SVG Version: 6.00 Build 0)  -->
<!DOCTYPE svg PUBLIC "-//W3C//DTD SVG 1.1//EN" "http://www.w3.org/Graphics/SVG/1.1/DTD/svg11.dtd">
<svg version="1.1" id="Capa_1" xmlns="http://www.w3.org/2000/svg" xmlns:xlink="http://www.w3.org/1999/xlink" x="0px" y="0px"
	 width="20px" height="20px" viewBox="0 0 20 20" enable-background="new 0 0 20 20" xml:space="preserve">
<g>
	<g>
		<path fill="#808080" d="M10,10c1.381,0,2.559-0.488,3.535-1.465S15,6.38,15,5s-0.488-2.559-1.465-3.535S11.381,0,10,0
			C8.62,0,7.441,0.488,6.465,1.465S5,3.62,5,5s0.488,2.559,1.465,3.535S8.62,10,10,10z"/>
		<path fill="#808080" d="M19.121,15.279c-0.03-0.438-0.092-0.91-0.182-1.418c-0.092-0.509-0.207-0.979-0.346-1.414
			c-0.139-0.434-0.326-0.856-0.561-1.27c-0.234-0.412-0.503-0.763-0.807-1.054c-0.305-0.291-0.676-0.523-1.113-0.696
			c-0.438-0.174-0.923-0.261-1.452-0.261c-0.078,0-0.261,0.093-0.547,0.28c-0.286,0.187-0.61,0.395-0.97,0.625
			c-0.36,0.23-0.83,0.438-1.406,0.625c-0.578,0.187-1.156,0.28-1.739,0.28c-0.582,0-1.161-0.094-1.738-0.28
			c-0.577-0.187-1.046-0.395-1.406-0.625c-0.36-0.23-0.683-0.438-0.97-0.625c-0.287-0.187-0.469-0.28-0.547-0.28
			c-0.529,0-1.014,0.087-1.452,0.261c-0.438,0.173-0.81,0.406-1.114,0.696c-0.304,0.291-0.573,0.642-0.807,1.054
			c-0.234,0.413-0.421,0.836-0.56,1.27c-0.139,0.435-0.254,0.905-0.345,1.414c-0.091,0.508-0.152,0.98-0.182,1.418
			c-0.031,0.439-0.046,0.889-0.046,1.349c0,1.042,0.317,1.864,0.951,2.468C2.417,19.698,3.26,20,4.31,20h11.38
			c1.05,0,1.892-0.302,2.526-0.904c0.634-0.604,0.95-1.426,0.95-2.468C19.167,16.168,19.152,15.719,19.121,15.279z"/>
	</g>
</g>
</svg>
