<?xml version="1.0" encoding="utf-8"?>
<!-- Generator: Adobe Illustrator 16.0.4, SVG Export Plug-In . SVG Version: 6.00 Build 0)  -->
<!DOCTYPE svg PUBLIC "-//W3C//DTD SVG 1.1//EN" "http://www.w3.org/Graphics/SVG/1.1/DTD/svg11.dtd">
<svg version="1.1" id="Capa_1" xmlns="http://www.w3.org/2000/svg" xmlns:xlink="http://www.w3.org/1999/xlink" x="0px" y="0px"
	 width="16px" height="16px" viewBox="0 0 284.93 284.93" enable-background="new 0 0 284.93 284.93" xml:space="preserve">
<g>
	<path fill="#949494" d="M282.082,76.51l-14.273-14.272c-1.902-1.906-4.094-2.856-6.57-2.856c-2.471,0-4.661,0.95-6.563,2.856
		L142.466,174.441L30.262,62.241c-1.903-1.906-4.094-2.856-6.567-2.856c-2.475,0-4.665,0.95-6.567,2.856L2.856,76.515
		C0.95,78.417,0,80.607,0,83.082c0,2.474,0.953,4.663,2.856,6.565l133.043,133.046c1.901,1.903,4.093,2.854,6.566,2.854
		c2.475,0,4.661-0.95,6.562-2.854L282.082,89.647c1.902-1.903,2.848-4.093,2.848-6.565C284.929,80.607,283.984,78.417,282.082,76.51
		z"/>
</g>
</svg>
