<?xml version="1.0" encoding="utf-8"?>
<!-- Generator: Adobe Illustrator 18.0.0, SVG Export Plug-In . SVG Version: 6.00 Build 0)  -->
<!DOCTYPE svg PUBLIC "-//W3C//DTD SVG 1.1//EN" "http://www.w3.org/Graphics/SVG/1.1/DTD/svg11.dtd">
<svg version="1.1" id="Layer_1" xmlns="http://www.w3.org/2000/svg" xmlns:xlink="http://www.w3.org/1999/xlink" x="0px" y="0px"
	 width="50px" height="50px" viewBox="0 0 50 50" enable-background="new 0 0 50 50" xml:space="preserve">
<linearGradient id="SVGID_1_" gradientUnits="userSpaceOnUse" x1="25.0005" y1="50" x2="25.0005" y2="-5.966285e-10">
	<stop  offset="0" style="stop-color:#34B3A2"/>
	<stop  offset="1" style="stop-color:#57BEB5"/>
</linearGradient>
<path fill="url(#SVGID_1_)" d="M38.3,50H11.7C5.3,50,0,44.7,0,38.3V11.7C0,5.3,5.3,0,11.7,0h26.6C44.7,0,50,5.3,50,11.7v26.6
	C50,44.7,44.7,50,38.3,50z"/>
<path fill="#FFFFFF" d="M11.6,11v24.8h20.8V11H11.6z M30.8,30.4H13.1V12.7h17.7V30.4z"/>
<g>
	<path fill="#FFFFFF" d="M11.1,39.4c0.4,0,0.6,0.1,0.9,0.2c0.2,0.1,0.4,0.3,0.5,0.6c0.1,0.2,0.1,0.4,0.1,0.6c0,0.3,0,0.5,0,0.9
		c0,0.3,0,0.6,0,0.9c0,0.3-0.1,0.5-0.1,0.6c-0.1,0.1-0.1,0.3-0.2,0.4c-0.1,0.1-0.2,0.2-0.3,0.2c-0.1,0.1-0.3,0.1-0.4,0.1
		c-0.1,0-0.3,0-0.5,0H9.4v-4.5H11.1z M11.3,41.3c0-0.1,0-0.3,0-0.4c0-0.1,0-0.2,0-0.3c-0.1-0.2-0.2-0.3-0.4-0.3h-0.3v2.5h0.3
		c0.2,0,0.3-0.1,0.4-0.2c0.1-0.1,0.1-0.3,0.1-0.5V41.3z"/>
	<path fill="#FFFFFF" d="M16.2,42.1c0,0.2,0,0.4,0,0.6c0,0.2-0.1,0.4-0.2,0.5c-0.1,0.2-0.3,0.4-0.5,0.5c-0.2,0.1-0.5,0.2-0.9,0.2
		c-0.4,0-0.6-0.1-0.9-0.2c-0.2-0.1-0.4-0.3-0.5-0.5c-0.1-0.2-0.1-0.3-0.2-0.6c0-0.2,0-0.4,0-0.6v-1c0-0.1,0-0.2,0-0.3
		c0-0.1,0-0.2,0-0.3c0.1-0.4,0.2-0.7,0.5-0.9c0.3-0.2,0.6-0.3,1.1-0.3c0.3,0,0.5,0,0.7,0.1c0.2,0.1,0.4,0.2,0.5,0.3
		c0.1,0.1,0.2,0.3,0.3,0.5c0.1,0.2,0.1,0.4,0.1,0.6V42.1z M15,41.1c0-0.1,0-0.2,0-0.2c0-0.1,0-0.1,0-0.2c0-0.1-0.1-0.2-0.1-0.2
		c-0.1,0-0.1-0.1-0.2-0.1c-0.1,0-0.2,0-0.2,0.1c-0.1,0.1-0.1,0.1-0.1,0.2c0,0.1,0,0.1,0,0.2c0,0.1,0,0.1,0,0.2v1.1
		c0,0.1,0,0.2,0,0.2c0,0.1,0,0.1,0,0.2c0,0.1,0.1,0.2,0.1,0.2c0.1,0,0.1,0.1,0.2,0.1c0.2,0,0.4-0.1,0.4-0.4V41.1z"/>
	<path fill="#FFFFFF" d="M19.8,42.1c0,0.2,0,0.4,0,0.6c0,0.2-0.1,0.4-0.2,0.5c-0.1,0.2-0.3,0.4-0.5,0.5c-0.2,0.1-0.5,0.2-0.9,0.2
		c-0.4,0-0.6-0.1-0.9-0.2c-0.2-0.1-0.4-0.3-0.5-0.5c-0.1-0.2-0.1-0.3-0.2-0.6c0-0.2,0-0.4,0-0.6v-1c0-0.1,0-0.2,0-0.3
		c0-0.1,0-0.2,0-0.3c0.1-0.4,0.2-0.7,0.5-0.9c0.3-0.2,0.6-0.3,1.1-0.3c0.3,0,0.5,0,0.7,0.1c0.2,0.1,0.4,0.2,0.5,0.3
		c0.1,0.1,0.2,0.3,0.3,0.5c0.1,0.2,0.1,0.4,0.1,0.6V42.1L19.8,42.1z M18.6,41.1c0-0.1,0-0.2,0-0.2c0-0.1,0-0.1,0-0.2
		c0-0.1-0.1-0.2-0.1-0.2c-0.1,0-0.1-0.1-0.2-0.1c-0.1,0-0.2,0-0.2,0.1c-0.1,0.1-0.1,0.1-0.1,0.2c0,0.1,0,0.1,0,0.2
		c0,0.1,0,0.1,0,0.2v1.1c0,0.1,0,0.2,0,0.2c0,0.1,0,0.1,0,0.2c0,0.1,0.1,0.2,0.1,0.2c0.1,0,0.1,0.1,0.2,0.1c0.2,0,0.4-0.1,0.4-0.4
		V41.1z"/>
	<path fill="#FFFFFF" d="M22.3,43.9l-0.6-1.7h-0.2v1.7h-1.2v-4.5h1.8c0.4,0,0.8,0.1,1,0.3c0.3,0.2,0.4,0.6,0.4,1
		c0,0.3-0.1,0.5-0.2,0.7c-0.1,0.2-0.3,0.4-0.5,0.5l0.7,2L22.3,43.9L22.3,43.9z M22.3,40.8c0-0.1,0-0.2-0.1-0.3
		c-0.1-0.1-0.2-0.1-0.3-0.1h-0.3v0.8h0.4c0,0,0.1,0,0.1,0c0,0,0.1,0,0.1-0.1c0,0,0.1-0.1,0.1-0.1C22.3,41,22.3,40.9,22.3,40.8"/>
	<path fill="#FFFFFF" d="M27,42.5c0,0.4-0.1,0.8-0.4,1c-0.3,0.2-0.7,0.4-1.2,0.4c-0.4,0-0.7-0.1-1-0.2c-0.3-0.1-0.5-0.3-0.7-0.6
		l0.8-0.7c0.1,0.2,0.3,0.3,0.4,0.4c0.1,0.1,0.3,0.1,0.4,0.1c0.2,0,0.3,0,0.3-0.1c0.1-0.1,0.1-0.1,0.1-0.2c0-0.1,0-0.1,0-0.2
		c0,0-0.1-0.1-0.1-0.1c-0.1,0-0.1-0.1-0.2-0.1c-0.1,0-0.2-0.1-0.3-0.1c-0.2-0.1-0.4-0.1-0.5-0.2c-0.1-0.1-0.3-0.2-0.4-0.3
		c-0.1-0.1-0.2-0.2-0.2-0.4c-0.1-0.1-0.1-0.3-0.1-0.5c0-0.2,0-0.4,0.1-0.6c0.1-0.2,0.2-0.3,0.3-0.4c0.1-0.1,0.3-0.2,0.5-0.3
		c0.2-0.1,0.4-0.1,0.6-0.1c0.3,0,0.6,0.1,0.9,0.2c0.2,0.1,0.5,0.3,0.6,0.5l-0.7,0.8c-0.1-0.1-0.2-0.2-0.4-0.3
		c-0.1-0.1-0.3-0.1-0.4-0.1c-0.1,0-0.2,0-0.2,0.1c-0.1,0.1-0.1,0.1-0.1,0.2c0,0.1,0.1,0.2,0.2,0.2c0.1,0.1,0.3,0.1,0.5,0.2
		c0.2,0.1,0.4,0.2,0.6,0.3c0.2,0.1,0.3,0.2,0.4,0.3c0.1,0.1,0.2,0.2,0.2,0.4C27,42.2,27,42.4,27,42.5"/>
	<polygon fill="#FFFFFF" points="29.3,40.4 29.3,43.9 28.1,43.9 28.1,40.4 27.1,40.4 27.1,39.4 30.3,39.4 30.3,40.4 	"/>
	<polygon fill="#FFFFFF" points="30.6,43.9 30.6,39.4 33.5,39.4 33.5,40.4 31.9,40.4 31.9,41.1 33.3,41.1 33.3,42.1 31.9,42.1 
		31.9,42.9 33.5,42.9 33.5,43.9 	"/>
	<path fill="#FFFFFF" d="M37.2,40.8c0,0.2,0,0.4-0.1,0.6c-0.1,0.2-0.2,0.3-0.3,0.5c-0.1,0.1-0.3,0.2-0.5,0.3
		c-0.2,0.1-0.4,0.1-0.6,0.1h-0.5v1.7h-1.2v-4.5h1.7c0.2,0,0.4,0,0.6,0.1c0.2,0.1,0.3,0.1,0.5,0.3c0.1,0.1,0.2,0.3,0.3,0.4
		C37.2,40.4,37.2,40.6,37.2,40.8 M36,40.8c0-0.1,0-0.3-0.1-0.3c-0.1-0.1-0.2-0.1-0.3-0.1h-0.3v0.9h0.3c0.1,0,0.2,0,0.3-0.1
		C36,41.1,36,41,36,40.8"/>
	<path fill="#FFFFFF" d="M40.6,42.5c0,0.4-0.1,0.8-0.4,1C39.9,43.8,39.5,44,39,44c-0.4,0-0.7-0.1-1-0.2c-0.3-0.1-0.5-0.3-0.7-0.6
		l0.8-0.7c0.1,0.2,0.3,0.3,0.4,0.4c0.1,0.1,0.3,0.1,0.4,0.1c0.2,0,0.3,0,0.3-0.1c0.1-0.1,0.1-0.1,0.1-0.2c0-0.1,0-0.1,0-0.2
		c0,0-0.1-0.1-0.1-0.1c-0.1,0-0.1-0.1-0.2-0.1c-0.1,0-0.2-0.1-0.3-0.1c-0.2-0.1-0.4-0.1-0.5-0.2c-0.1-0.1-0.3-0.2-0.4-0.3
		c-0.1-0.1-0.2-0.2-0.2-0.4c-0.1-0.1-0.1-0.3-0.1-0.5c0-0.2,0-0.4,0.1-0.6c0.1-0.2,0.2-0.3,0.3-0.4c0.1-0.1,0.3-0.2,0.5-0.3
		c0.2-0.1,0.4-0.1,0.6-0.1c0.3,0,0.6,0.1,0.9,0.2c0.2,0.1,0.5,0.3,0.6,0.5l-0.7,0.8c-0.1-0.1-0.2-0.2-0.4-0.3
		c-0.1-0.1-0.3-0.1-0.4-0.1c-0.1,0-0.2,0-0.2,0.1c-0.1,0.1-0.1,0.1-0.1,0.2c0,0.1,0.1,0.2,0.2,0.2c0.1,0.1,0.3,0.1,0.5,0.2
		c0.2,0.1,0.4,0.2,0.6,0.3c0.2,0.1,0.3,0.2,0.4,0.3c0.1,0.1,0.2,0.2,0.2,0.4C40.6,42.2,40.6,42.4,40.6,42.5"/>
</g>
<polygon fill="#FFFFFF" points="19.9,5.7 19.5,10.4 21,10.4 21.3,7.5 38.9,9 37.3,26.6 33,26.2 33,31.7 38.4,32.2 40.6,7.5 "/>
<path fill="#FFFFFF" d="M22,16l-7.2,6.1h1.3v6.4h6.4v-5.3h2.8v5.3h2.6v-6.4h1.3L22,16z M20.5,26h-2.8v-2.8h2.8V26z"/>
</svg>
