<?xml version="1.0" encoding="utf-8"?>
<!-- Generator: Adobe Illustrator 18.0.0, SVG Export Plug-In . SVG Version: 6.00 Build 0)  -->
<!DOCTYPE svg PUBLIC "-//W3C//DTD SVG 1.1//EN" "http://www.w3.org/Graphics/SVG/1.1/DTD/svg11.dtd">
<svg version="1.1" id="Layer_1_copy_4" xmlns="http://www.w3.org/2000/svg" xmlns:xlink="http://www.w3.org/1999/xlink" x="0px"
	 y="0px" width="24px" height="24px" viewBox="0 0 24 24" enable-background="new 0 0 24 24" xml:space="preserve">
<g>
	<path fill="#CC2127" d="M12,22.3c-1,0-2-0.1-2.9-0.4c0.4-0.6,0.8-1.4,1-2.2c0,0,0.1-0.5,0.7-2.8c0.3,0.7,1.4,1.3,2.5,1.3
		c3.3,0,5.6-3,5.6-7.1c0-3-2.6-5.9-6.5-5.9c-4.9,0-7.3,3.5-7.3,6.4c0,1.8,0.7,3.3,2.1,3.9c0.2,0.1,0.4,0,0.5-0.3
		c0.1-0.2,0.2-0.6,0.2-0.8c0.1-0.3,0-0.3-0.1-0.6c-0.4-0.5-0.7-1.1-0.7-2C7,9.3,9,6.9,12.1,6.9c2.8,0,4.3,1.7,4.3,4
		c0,3-1.3,5.5-3.3,5.5c-1.1,0-1.9-0.9-1.6-2c0.3-1.3,0.9-2.7,0.9-3.6c0-0.8-0.5-1.6-1.4-1.6c-1.1,0-2,1.1-2,2.7c0,0,0,1,0.3,1.6
		C8.2,18.3,8,19.1,8,19.1c-0.2,0.8-0.2,1.6-0.2,2.4c-3.6-1.6-6.2-5.2-6.2-9.4C1.7,6.3,6.3,1.7,12,1.7S22.3,6.3,22.3,12
		S17.7,22.3,12,22.3z"/>
</g>
</svg>
