<?xml version="1.0" encoding="utf-8"?>
<!-- Generator: Adobe Illustrator 18.0.0, SVG Export Plug-In . SVG Version: 6.00 Build 0)  -->
<!DOCTYPE svg PUBLIC "-//W3C//DTD SVG 1.1//EN" "http://www.w3.org/Graphics/SVG/1.1/DTD/svg11.dtd">
<svg version="1.1" id="Layer_1_copy_2" xmlns="http://www.w3.org/2000/svg" xmlns:xlink="http://www.w3.org/1999/xlink" x="0px"
	 y="0px" width="24px" height="24px" viewBox="0 0 24 24" enable-background="new 0 0 24 24" xml:space="preserve">
<g>
	<path fill="#DD4B39" d="M15,17.7c0,0.8-0.2,1.6-0.6,2.3c-1.4,2.3-4.3,3.2-6.8,3.2c-2,0-4.5-0.5-5.6-2.4c-0.3-0.5-0.5-1.1-0.5-1.8
		c0-1.5,0.9-2.8,2.2-3.5c1.6-1,3.6-1.2,5.4-1.3c-0.5-0.6-0.8-1.2-0.8-2c0-0.4,0.1-0.8,0.3-1.1C8.1,11,7.8,11,7.5,11
		c-2.6,0-4.7-1.9-4.7-4.6c0-1.5,0.7-2.9,1.8-3.9C6.1,1.3,8.1,0.9,10,0.9h5.6L13.7,2H12c1.2,1.1,2,2.2,2,3.9c0,3.5-3.2,3.9-3.2,5.6
		C10.8,13.3,15,13.9,15,17.7z M13.1,18.8c0-1.8-1.8-2.9-3.1-3.8c-0.2,0-0.4,0-0.6,0C7.2,15,4,15.7,4,18.5c0,2.6,2.8,3.6,5,3.6
		C10.9,21.9,13.1,21.1,13.1,18.8z M10.8,9.4c0.5-0.6,0.7-1.3,0.7-2.1c0-2-1.2-5.3-3.6-5.3c-0.8,0-1.5,0.4-2,1
		C5.5,3.5,5.3,4.3,5.3,5.1c0,2,1.1,5.2,3.6,5.2C9.5,10.2,10.3,9.9,10.8,9.4z M22.6,10.2v1.4h-2.9v2.9h-1.4v-2.9h-2.8v-1.4h2.8V7.3
		h1.4v2.9C19.7,10.2,22.6,10.2,22.6,10.2z"/>
</g>
</svg>
