<?xml version="1.0" encoding="utf-8"?>
<!-- Generator: Adobe Illustrator 18.0.0, SVG Export Plug-In . SVG Version: 6.00 Build 0)  -->
<!DOCTYPE svg PUBLIC "-//W3C//DTD SVG 1.1//EN" "http://www.w3.org/Graphics/SVG/1.1/DTD/svg11.dtd">
<svg version="1.1" id="Layer_1" xmlns="http://www.w3.org/2000/svg" xmlns:xlink="http://www.w3.org/1999/xlink" x="0px" y="0px"
	 width="28px" height="28px" viewBox="0 0 28 28" enable-background="new 0 0 28 28" xml:space="preserve">
<g id="baseline">
</g>
<g id="bgd-gray" display="none">
	<rect x="-48" y="-48" display="inline" fill="#7F7F7F" width="128" height="128"/>
</g>
<g id="bgd-black" display="none">
	<rect x="-48" y="-48" display="inline" width="128" height="128"/>
</g>
<g id="workspace">
	<path fill="#999999" d="M25,0H3C1.9,0,1,0.9,1,2v24c0,1.1,0.9,2,2,2h22c1.1,0,2-0.9,2-2V2C27,0.9,26.1,0,25,0z M5,26
		c-1.1,0-2-0.9-2-2s0.9-2,2-2s2,0.9,2,2S6.1,26,5,26z M5,20c-1.1,0-2-0.9-2-2c0-1.1,0.9-2,2-2s2,0.9,2,2C7,19.1,6.1,20,5,20z M5,14
		c-1.1,0-2-0.9-2-2s0.9-2,2-2s2,0.9,2,2S6.1,14,5,14z M11,26c-1.1,0-2-0.9-2-2s0.9-2,2-2s2,0.9,2,2S12.1,26,11,26z M11,20
		c-1.1,0-2-0.9-2-2c0-1.1,0.9-2,2-2s2,0.9,2,2C13,19.1,12.1,20,11,20z M11,14c-1.1,0-2-0.9-2-2s0.9-2,2-2s2,0.9,2,2S12.1,14,11,14z
		 M17,26c-1.1,0-2-0.9-2-2s0.9-2,2-2s2,0.9,2,2S18.1,26,17,26z M17,20c-1.1,0-2-0.9-2-2c0-1.1,0.9-2,2-2s2,0.9,2,2
		C19,19.1,18.1,20,17,20z M17,14c-1.1,0-2-0.9-2-2s0.9-2,2-2s2,0.9,2,2S18.1,14,17,14z M25,24c0,1.1-0.9,2-2,2s-2-0.9-2-2v-6
		c0-1.1,0.9-2,2-2s2,0.9,2,2V24z M23,14c-1.1,0-2-0.9-2-2s0.9-2,2-2s2,0.9,2,2S24.1,14,23,14z M25,7c0,0.6-0.5,1-1,1H4
		C3.4,8,3,7.6,3,7V3c0-0.6,0.4-1,1-1h20c0.5,0,1,0.4,1,1V7z"/>
</g>
</svg>
