<?xml version="1.0" encoding="utf-8"?>
<!-- Generator: Adobe Illustrator 18.0.0, SVG Export Plug-In . SVG Version: 6.00 Build 0)  -->
<!DOCTYPE svg PUBLIC "-//W3C//DTD SVG 1.1//EN" "http://www.w3.org/Graphics/SVG/1.1/DTD/svg11.dtd">
<svg version="1.1" id="Layer_1" xmlns="http://www.w3.org/2000/svg" xmlns:xlink="http://www.w3.org/1999/xlink" x="0px" y="0px"
	 width="50px" height="50px" viewBox="0 0 50 50" enable-background="new 0 0 50 50" xml:space="preserve">
<path fill="#648794" d="M38.3,50H11.7C5.3,50,0,44.7,0,38.3V11.7C0,5.3,5.3,0,11.7,0h26.6C44.7,0,50,5.3,50,11.7v26.6
	C50,44.7,44.7,50,38.3,50z"/>
<g>
	<g>
		<path fill="#FFFFFF" d="M5.9,7.5h1v0.6h0c0.2-0.4,0.6-0.7,1.1-0.7c0.1,0,0.2,0,0.3,0.1v0.9c-0.2,0-0.3-0.1-0.5-0.1
			c-0.9,0-1,0.8-1,1v2.1h-1V7.5z"/>
		<path fill="#FFFFFF" d="M9.5,9.8c0.1,0.6,0.5,0.9,1,0.9c0.5,0,0.8-0.2,1-0.5l0.7,0.5c-0.5,0.6-1,0.8-1.6,0.8c-1.2,0-2.1-0.8-2.1-2
			c0-1.2,0.9-2,2.1-2c1.1,0,1.8,0.8,1.8,2.1v0.3H9.5z M11.5,9.1c0-0.6-0.4-0.9-1-0.9c-0.6,0-0.9,0.4-1,0.9H11.5z"/>
		<path fill="#FFFFFF" d="M15.5,10.8L15.5,10.8c-0.3,0.4-0.7,0.6-1.3,0.6c-0.7,0-1.4-0.4-1.4-1.2c0-1.3,1.5-1.3,2.4-1.3h0.2V8.9
			c0-0.5-0.4-0.7-0.9-0.7c-0.4,0-0.8,0.2-1,0.4L13.1,8c0.4-0.4,1-0.6,1.6-0.6c1.7,0,1.7,1.2,1.7,1.7v2.2h-0.9V10.8z M15.4,9.6h-0.2
			c-0.5,0-1.5,0-1.5,0.6c0,0.4,0.4,0.5,0.7,0.5c0.7,0,1-0.3,1-0.9V9.6z"/>
		<path fill="#FFFFFF" d="M17.1,5.3h1v6.1h-1V5.3z"/>
		<path fill="#FFFFFF" d="M18.4,8.3V7.5h0.8V6.4h1v1.1h1.1v0.8h-1.1V10c0,0.4,0.1,0.6,0.5,0.6c0.2,0,0.4,0,0.5-0.1v0.8
			c-0.2,0.1-0.5,0.1-0.8,0.1c-1,0-1.3-0.5-1.3-1.4V8.3H18.4z"/>
		<path fill="#FFFFFF" d="M23.6,7.4c1.2,0,2.1,0.8,2.1,2c0,1.2-0.9,2-2.1,2c-1.2,0-2.1-0.8-2.1-2C21.5,8.2,22.5,7.4,23.6,7.4z
			 M23.6,10.6c0.7,0,1.1-0.6,1.1-1.2c0-0.6-0.4-1.2-1.1-1.2c-0.7,0-1.1,0.6-1.1,1.2C22.5,10,22.9,10.6,23.6,10.6z"/>
		<path fill="#FFFFFF" d="M26.2,7.5h1v0.6h0c0.2-0.4,0.6-0.7,1.1-0.7c0.1,0,0.2,0,0.3,0.1v0.9c-0.2,0-0.3-0.1-0.5-0.1
			c-0.9,0-1,0.8-1,1v2.1h-1V7.5z"/>
		<path fill="#FFFFFF" d="M28.7,10.2c0.3,0,0.6,0.3,0.6,0.6c0,0.3-0.3,0.6-0.6,0.6c-0.3,0-0.6-0.3-0.6-0.6
			C28,10.5,28.3,10.2,28.7,10.2z"/>
		<path fill="#FFFFFF" d="M32.5,8.7c-0.2-0.2-0.5-0.4-0.7-0.4c-0.7,0-1.1,0.6-1.1,1.2c0,0.6,0.4,1.2,1.1,1.2c0.3,0,0.6-0.1,0.7-0.4
			l0.6,0.7c-0.4,0.4-1.1,0.5-1.4,0.5c-1.2,0-2.1-0.8-2.1-2c0-1.2,0.9-2,2.1-2c0.5,0,1,0.2,1.4,0.6L32.5,8.7z"/>
		<path fill="#FFFFFF" d="M35.4,7.4c1.2,0,2.1,0.8,2.1,2c0,1.2-0.9,2-2.1,2c-1.2,0-2.1-0.8-2.1-2C33.3,8.2,34.3,7.4,35.4,7.4z
			 M35.4,10.6c0.7,0,1.1-0.6,1.1-1.2c0-0.6-0.4-1.2-1.1-1.2c-0.7,0-1.1,0.6-1.1,1.2C34.3,10,34.7,10.6,35.4,10.6z"/>
		<path fill="#FFFFFF" d="M38.1,7.5H39v0.6h0c0.2-0.4,0.5-0.7,1.2-0.7c0.6,0,1,0.2,1.2,0.7c0.3-0.5,0.7-0.7,1.3-0.7
			c1,0,1.4,0.7,1.4,1.7v2.3h-1V9.2c0-0.5-0.1-0.9-0.7-0.9c-0.6,0-0.8,0.5-0.8,1v2.1h-1V9.1c0-0.5-0.2-0.8-0.7-0.8
			c-0.6,0-0.9,0.5-0.9,1v2.1h-1V7.5z"/>
	</g>
	<g>
		<path fill="#FFFFFF" d="M45.4,7.4c0.4,0,0.8,0.4,0.8,0.8c0,0.4-0.4,0.8-0.8,0.8c-0.4,0-0.8-0.4-0.8-0.8C44.6,7.8,45,7.4,45.4,7.4z
			 M45.4,8.9c0.4,0,0.7-0.3,0.7-0.7c0-0.4-0.3-0.7-0.7-0.7c-0.4,0-0.7,0.3-0.7,0.7C44.8,8.6,45.1,8.9,45.4,8.9z M45.3,8.7h-0.1V7.7
			h0.4c0.2,0,0.3,0.1,0.3,0.3c0,0.2-0.1,0.2-0.2,0.3l0.3,0.4h-0.1l-0.3-0.4h-0.2V8.7z M45.3,8.1h0.1c0.1,0,0.3,0,0.3-0.2
			c0-0.1-0.1-0.2-0.2-0.2h-0.2V8.1z"/>
	</g>
</g>
<g>
	<polygon fill="#FFFFFF" points="25,14.2 8.6,27.5 10.6,29.4 25,17.7 39.4,29.4 41.4,27.5 	"/>
	<rect x="19.6" y="43.4" fill="#FFFFFF" width="10.7" height="1.6"/>
</g>
<g>
	<path fill="#FFFFFF" d="M26.4,35.8c0.1-0.2,0.2-0.4,0.2-0.6c0-0.2-0.1-0.4-0.2-0.6c-0.1-0.2-0.3-0.3-0.5-0.4c0,0-0.1,0-0.1-0.1v2.2
		c0.1,0,0.1-0.1,0.2-0.1C26.1,36.2,26.2,36,26.4,35.8z"/>
	<path fill="#FFFFFF" d="M24.3,29.9C24.2,30,24.1,30,24,30c-0.2,0.1-0.3,0.2-0.4,0.4c-0.1,0.2-0.2,0.3-0.2,0.6c0,0.2,0,0.4,0.1,0.5
		c0.1,0.1,0.2,0.3,0.4,0.4c0.1,0.1,0.2,0.1,0.3,0.2V29.9z"/>
	<path fill="#FFFFFF" d="M25,20.3l-12,9.8v13.2h6.6l1.4-0.8h8l1.4,0.8H37V30.1L25,20.3z M24.1,33.6c-0.3-0.1-0.6-0.2-0.9-0.3
		c-0.3-0.1-0.6-0.3-0.8-0.5c-0.2-0.2-0.5-0.4-0.6-0.7c-0.2-0.3-0.2-0.6-0.2-1.1c0-0.5,0.1-0.9,0.3-1.2c0.2-0.3,0.5-0.6,0.9-0.8
		c0.4-0.2,0.8-0.4,1.2-0.5c0.1,0,0.2-0.1,0.3-0.1v-0.9h1.4v0.9c0.4,0,0.8,0.1,1.2,0.2c0.5,0.2,1,0.4,1.4,0.7l-1.2,1.2
		c-0.2-0.2-0.5-0.4-0.8-0.6c-0.2-0.1-0.4-0.1-0.6-0.2v2.7c0.2,0.1,0.5,0.1,0.7,0.2c0.4,0.1,0.7,0.3,1,0.5c0.3,0.2,0.5,0.4,0.7,0.7
		c0.2,0.3,0.3,0.7,0.3,1.1c0,0.5-0.1,0.9-0.3,1.3c-0.2,0.4-0.5,0.7-0.8,0.9c-0.3,0.2-0.7,0.4-1.2,0.5c-0.1,0-0.2,0.1-0.4,0.1v1h-1.4
		v-0.9c-0.6,0-1.1-0.1-1.6-0.3c-0.6-0.2-1.2-0.5-1.6-1l1.3-1.1c0.3,0.3,0.6,0.6,1,0.7c0.3,0.1,0.6,0.2,0.9,0.2v-2.9
		C24.2,33.7,24.2,33.7,24.1,33.6z M21,41.2l1-0.8h6l1,0.8H21z"/>
</g>
</svg>
